<svg width="36" height="36" viewBox="0 0 512 512" xmlns="http://www.w3.org/2000/svg">
  <path fill="#ebcd99" d="M 256 512 C 250.316 512 245.125 508.789 242.582 503.707 L 196.441 411.426 C 107.52 385.211 46 303.359 46 210 C 46 94.207 140.207 0 256 0 C 371.793 0 466 94.207 466 210 C 466 303.363 404.48 385.215 315.555 411.43 L 269.414 503.707 C 266.875 508.789 261.68 512 256 512 Z M 256 512"></path>
  <path fill="#54341f" d="m255.90909,0l0,512c5.67969,0 10.875,-3.21094 13.41406,-8.29297l46.14063,-92.27734c88.92578,-26.21485 150.44531,-108.06641 150.44531,-201.42969c0,-115.79297 -94.20703,-210 -210,-210zm0,0"></path>
  <path fill="#966840" d="M 370.3 280.732 L 339.004 249.444 C 339.004 249.444 356.81 231.143 357.217 230.103 C 358.482 226.991 349.407 215.234 348.111 214.732 C 344.9 213.612 341.321 214.513 339.004 217.021 L 319.1 236.362 L 289.347 206.426 L 335.598 160.127 L 328.764 149.888 L 340.147 155.582 L 364.034 131.674 L 374.28 89.011 L 331.044 98.114 L 287.234 142.49 L 291.786 149.311 L 279.837 149.311 L 258.787 170.931 L 263.907 181.741 L 255.947 172.639 L 209.861 127.136 L 199.621 133.959 L 204.74 122.576 L 181.419 98.683 L 138.751 88.443 L 148.415 131.111 L 192.791 175.489 L 199.056 171.502 L 199.056 182.886 L 220.677 203.928 L 231.487 198.245 L 193.362 236.362 L 172.32 215.879 C 170.016 214.194 167.03 213.768 164.35 214.732 C 163.262 215.314 157.517 220.426 157.517 220.426 C 153.886 223.806 153.886 229.571 157.517 232.948 L 173.454 249.444 L 142.162 280.732 C 139.57 283.051 138.118 286.375 138.182 289.847 C 138.25 292.282 139.037 294.653 140.461 296.662 L 164.35 320.562 C 165.47 321.775 166.816 322.746 168.33 323.407 C 169.809 323.859 171.342 324.047 172.881 323.973 C 175.28 324.072 177.645 323.475 179.718 322.263 L 213.279 289.27 L 229.769 305.194 C 231.629 307.309 234.389 308.373 237.18 308.05 C 238.432 307.759 247.51 299.679 247.984 298.372 C 249.104 295.154 248.21 291.581 245.704 289.27 L 226.361 269.361 L 255.87 239.661 L 286.108 269.361 L 266.75 289.27 C 265.545 290.522 264.758 292.113 264.478 293.822 C 264.184 295.787 264.591 297.807 265.621 299.511 C 265.621 300.651 272.303 306.971 273.584 307.479 C 275.255 308.005 277.038 308.005 278.709 307.479 C 280.424 307.197 282.009 306.403 283.248 305.194 L 299.183 289.27 L 330.478 320.562 C 334.028 324.195 339.422 325.318 344.135 323.407 C 345.62 322.713 373.232 294.502 373.712 292.113 C 374.568 287.989 373.278 283.711 370.3 280.732 Z" stroke="#000" stroke-width=".3"></path>
</svg>
