<svg xmlns="http://www.w3.org/2000/svg" viewBox="0 0 500 500"><defs><radialGradient gradientUnits="userSpaceOnUse" cx="274.3" cy="352.4" r="180.6" id="h" gradientTransform="matrix(1.32 0 0 1.32 -1126.2 334.9)"><stop offset="0" stop-color="#0b0056"/><stop offset="1"/></radialGradient><radialGradient gradientUnits="userSpaceOnUse" cx="274.3" cy="352.4" r="0" id="q"><stop offset="0" stop-color="#0b0056"/><stop offset="1"/></radialGradient><radialGradient gradientUnits="userSpaceOnUse" cx="274.3" cy="352.4" r="0" id="r"><stop offset="0" stop-color="#0b0056"/><stop offset="1"/></radialGradient><radialGradient gradientUnits="userSpaceOnUse" cx="274.3" cy="352.4" r="10.8" id="A" gradientTransform="matrix(1.32 0 0 1.32 -1126.2 334.9)"><stop offset="0" stop-color="#0b0056"/><stop offset="1"/></radialGradient><radialGradient gradientUnits="userSpaceOnUse" cx="274.3" cy="190.8" r="0" id="s"><stop offset="0" stop-color="#694633"/><stop offset="1" stop-color="#241812"/></radialGradient><radialGradient gradientUnits="userSpaceOnUse" cx="274.3" cy="229.4" r="10.8" id="u" gradientTransform="matrix(1.32 0 0 1.32 -1126.2 334.9)"><stop offset="0" stop-color="#694633"/><stop offset="1" stop-color="#241812"/></radialGradient><radialGradient gradientUnits="userSpaceOnUse" cx="274.3" cy="270.4" r="10.8" id="v" gradientTransform="matrix(1.32 0 0 1.32 -1126.2 334.9)"><stop offset="0" stop-color="#694633"/><stop offset="1" stop-color="#241812"/></radialGradient><radialGradient gradientUnits="userSpaceOnUse" cx="274.3" cy="311.4" r="10.8" id="w" gradientTransform="matrix(1.32 0 0 1.32 -1126.2 334.9)"><stop offset="0" stop-color="#694633"/><stop offset="1" stop-color="#241812"/></radialGradient><radialGradient gradientUnits="userSpaceOnUse" cx="315.3" cy="352.4" r="0" id="n"><stop offset="0" stop-color="#694633"/><stop offset="1" stop-color="#241812"/></radialGradient><radialGradient gradientUnits="userSpaceOnUse" cx="356.3" cy="352.4" r="0" id="o"><stop offset="0" stop-color="#694633"/><stop offset="1" stop-color="#241812"/></radialGradient><radialGradient gradientUnits="userSpaceOnUse" cx="397.2" cy="352.4" r="0" id="p"><stop offset="0" stop-color="#694633"/><stop offset="1" stop-color="#241812"/></radialGradient><radialGradient gradientUnits="userSpaceOnUse" cx="435.9" cy="352.4" r="16.1" id="j" gradientTransform="matrix(1.32 0 0 1.32 -1126.2 334.9)"><stop offset="0" stop-color="#694633"/><stop offset="1" stop-color="#241812"/></radialGradient><radialGradient gradientUnits="userSpaceOnUse" cx="274.3" cy="393.3" r="10.8" id="x" gradientTransform="matrix(1.32 0 0 1.32 -1126.2 334.9)"><stop offset="0" stop-color="#694633"/><stop offset="1" stop-color="#241812"/></radialGradient><radialGradient gradientUnits="userSpaceOnUse" cx="274.3" cy="434.3" r="10.8" id="y" gradientTransform="matrix(1.32 0 0 1.32 -1126.2 334.9)"><stop offset="0" stop-color="#694633"/><stop offset="1" stop-color="#241812"/></radialGradient><radialGradient gradientUnits="userSpaceOnUse" cx="274.3" cy="475.3" r="10.8" id="z" gradientTransform="matrix(1.32 0 0 1.32 -1126.2 334.9)"><stop offset="0" stop-color="#694633"/><stop offset="1" stop-color="#241812"/></radialGradient><radialGradient gradientUnits="userSpaceOnUse" cx="274.3" cy="513.9" r="0" id="t"><stop offset="0" stop-color="#694633"/><stop offset="1" stop-color="#241812"/></radialGradient><radialGradient gradientUnits="userSpaceOnUse" cx="233.3" cy="352.4" r="0" id="m"><stop offset="0" stop-color="#694633"/><stop offset="1" stop-color="#241812"/></radialGradient><radialGradient gradientUnits="userSpaceOnUse" cx="192.3" cy="352.4" r="0" id="l"><stop offset="0" stop-color="#694633"/><stop offset="1" stop-color="#241812"/></radialGradient><radialGradient gradientUnits="userSpaceOnUse" cx="151.3" cy="352.4" r="0" id="k"><stop offset="0" stop-color="#694633"/><stop offset="1" stop-color="#241812"/></radialGradient><radialGradient gradientUnits="userSpaceOnUse" cx="112.7" cy="352.4" r="16.1" id="i" gradientTransform="matrix(1.32 0 0 1.32 -1126.2 334.9)"><stop offset="0" stop-color="#694633"/><stop offset="1" stop-color="#241812"/></radialGradient><radialGradient gradientUnits="userSpaceOnUse" cx="3" cy="3" r="3" id="e"><stop offset="0" stop-color="#9e623b"/><stop offset="1" stop-color="#54341f"/></radialGradient><radialGradient gradientUnits="userSpaceOnUse" cx="7" cy="7" r="7" id="b"><stop offset="0" stop-color="#9e623b"/><stop offset="1" stop-color="#54341f"/></radialGradient><radialGradient gradientUnits="userSpaceOnUse" cx="7" cy="7" r="7" id="c"><stop offset="0" stop-color="#9e623b"/><stop offset="1" stop-color="#54341f"/></radialGradient><radialGradient gradientUnits="userSpaceOnUse" cx="3" cy="3" r="3" id="f"><stop offset="0" stop-color="#9e623b"/><stop offset="1" stop-color="#54341f"/></radialGradient><radialGradient gradientUnits="userSpaceOnUse" cx="3" cy="3" r="3" id="g"><stop offset="0" stop-color="#9e623b"/><stop offset="1" stop-color="#54341f"/></radialGradient><radialGradient gradientUnits="userSpaceOnUse" cx="7" cy="7" r="7" id="d"><stop offset="0" stop-color="#9e623b"/><stop offset="1" stop-color="#54341f"/></radialGradient><radialGradient gradientUnits="userSpaceOnUse" cx="-764.2" cy="800" r="238.4" id="a"><stop offset="0" stop-color="#694633"/><stop offset="1" stop-color="#241812"/></radialGradient><radialGradient gradientUnits="userSpaceOnUse" cx="824.8" cy="356.7" r="38" id="B"><stop offset="0" stop-color="#7c0101"/><stop offset="1" stop-color="#170000"/></radialGradient><radialGradient gradientUnits="userSpaceOnUse" cx="828.3" cy="442" r="94.1" id="C"><stop offset="0" stop-color="#7c0101"/><stop offset="1" stop-color="#170000"/></radialGradient></defs><g><g><path fill="#EBCD99" stroke="#000" d="M350.3 109.9l-3 2.5-3 2.5-2.9 2.4-2.9 2.5-3-2.7-2.9-2.6-3-2.7-2.9-2.7-15.5-1.2-15.6-1.3-15.5-1.2-15.6-1.2-3.2 8-3.3 7.9-3.2 8-3.2 8-4.7-8.3-4.8-8.2-4.7-8.3-4.8-8.2-29.2-1-29.2-1-29.1-.9-29.2-1v305.3l7.6-.3 7.7-.3 7.6-.3 7.7-.2 3-9.5 3-9.5 3-9.5 3-9.4 3.5 9.2 3.5 9.2 3.6 9.3 3.5 9.2 28.8-1.4 28.8-1.4 28.8-1.4 28.8-1.4 2.5-3.9 2.5-3.8 2.5-3.8 2.5-3.8 2.6 3.6 2.7 3.6 2.6 3.7 2.6 3.6 20.8-1.5 20.8-1.4 20.8-1.5 20.8-1.5V112l-10.3-.5-10.3-.5-10.3-.5z" stroke-width=".38378"/><path d="M379.8 133.3a310.5 310.5 0 01-17 27 223 223 0 01-41 43.6 219.4 219.4 0 01-67 37.5c-15.4 5.2-31.4 8.6-47.3 10s-32 .6-47.5-2.5-30.3-8.5-44.1-16.6v172.2l7.6-.3 7.7-.3 7.6-.3 7.7-.2 3-9.5 3-9.5 3-9.5 3-9.4 3.5 9.2 3.5 9.2 3.6 9.3 3.5 9.2 28.8-1.4 28.8-1.4 28.8-1.4 28.8-1.4 2.5-3.9 2.5-3.8 2.5-3.8 2.5-3.8 2.6 3.6 2.7 3.6 2.6 3.7 2.6 3.6 20.8-1.5 20.8-1.4 20.8-1.5 20.8-1.5V112H389l-.8-.1a126.7 126.7 0 01-5.7 16.3 67 67 0 01-2.7 5.2z" fill="#C99F67" stroke="#000" stroke-width=".38378"/><path d="M298.7 220.5a248.6 248.6 0 0033.7-25.9 217.4 217.4 0 0020.7-21.9 223 223 0 0018.5-25.6 309.8 309.8 0 0010.9-19 77.9 77.9 0 005.7-16.3l-9.5-.5-9.5-.5-9.5-.5-9.4-.4-3 2.5-3 2.5-2.9 2.4-2.9 2.5-3-2.7-2.9-2.6-3-2.7-2.9-2.7-15.5-1.2-15.6-1.3-15.5-1.2-15.6-1.2-3.2 8-3.3 7.9-3.2 8-3.2 8-4.7-8.3-4.8-8.2-4.7-8.3-4.8-8.2-29.2-1-29.2-1-29.1-.9-29.2-1v133.1c13.8 8 28.7 13.5 44.1 16.6s31.5 3.8 47.5 2.5 31.9-4.8 47.3-10a211.3 211.3 0 0043.9-20.9z" fill="#EBCD99" stroke="#000" stroke-width=".38378"/></g></g><g fill="#333"><circle cx="3" cy="3" r="3" stroke="#000" stroke-width=".2" fill="#9e633b" transform="matrix(1.79845 0 0 1.79845 232.8 139)"/><circle cx="3" cy="3" r="3" stroke="#000" stroke-width=".2" fill="#9e633b" transform="matrix(1.79845 0 0 1.79845 253.7 139)"/><circle cx="3" cy="3" r="3" stroke="#000" stroke-width=".2" fill="#9e633b" transform="matrix(1.79845 0 0 1.79845 232.8 149.5)"/><circle cx="3" cy="3" r="3" stroke="#000" stroke-width=".2" fill="#9e633b" transform="matrix(1.79845 0 0 1.79845 243.2 149.5)"/><circle cx="3" cy="3" r="3" stroke="#000" stroke-width=".2" fill="#9e633b" transform="matrix(1.79845 0 0 1.79845 253.7 149.5)"/><circle cx="3" cy="3" r="3" stroke="#000" stroke-width=".2" fill="#9e633b" transform="matrix(1.79845 0 0 1.79845 264.2 149.5)"/><circle cx="3" cy="3" r="3" stroke="#000" stroke-width=".2" fill="#9e633b" transform="matrix(1.79845 0 0 1.79845 232.8 160)"/><circle cx="3" cy="3" r="3" stroke="#000" stroke-width=".2" fill="#9e633b" transform="matrix(1.79845 0 0 1.79845 243.2 160)"/><circle cx="3" cy="3" r="3" stroke="#000" stroke-width=".2" fill="#9e633b" transform="matrix(1.79845 0 0 1.79845 264.2 160)"/><circle cx="3" cy="3" r="3" stroke="#000" stroke-width=".2" fill="#9e633b" transform="matrix(1.79845 0 0 1.79845 274.7 170.5)"/><circle cx="3" cy="3" r="3" stroke="#000" stroke-width=".2" fill="#9e633b" transform="matrix(1.79845 0 0 1.79845 243.2 181)"/><circle cx="3" cy="3" r="3" stroke="#000" stroke-width=".2" fill="#9e633b" transform="matrix(1.79845 0 0 1.79845 253.7 181)"/><circle cx="3" cy="3" r="3" stroke="#000" stroke-width=".2" fill="#9e633b" transform="matrix(1.79845 0 0 1.79845 232.8 191.4)"/><circle cx="3" cy="3" r="3" stroke="#000" stroke-width=".2" fill="#9e633b" transform="matrix(1.79845 0 0 1.79845 243.2 191.4)"/><circle cx="3" cy="3" r="3" stroke="#000" stroke-width=".2" fill="#9e633b" transform="matrix(1.79845 0 0 1.79845 253.7 191.4)"/><circle cx="3" cy="3" r="3" stroke="#000" stroke-width=".2" fill="#9e633b" transform="matrix(1.79845 0 0 1.79845 274.7 191.4)"/><circle cx="3" cy="3" r="3" stroke="#000" stroke-width=".2" fill="#9e633b" transform="matrix(1.79845 0 0 1.79845 232.8 201.9)"/><circle cx="3" cy="3" r="3" stroke="#000" stroke-width=".2" fill="#9e633b" transform="matrix(1.79845 0 0 1.79845 253.7 201.9)"/><circle cx="3" cy="3" r="3" stroke="#000" stroke-width=".2" fill="#9e633b" transform="matrix(1.79845 0 0 1.79845 274.7 201.9)"/><circle cx="3" cy="3" r="3" stroke="#000" stroke-width=".2" fill="#9e633b" transform="matrix(1.79845 0 0 1.79845 232.8 212.4)"/><circle cx="3" cy="3" r="3" stroke="#000" stroke-width=".2" fill="#9e633b" transform="matrix(1.79845 0 0 1.79845 264.2 212.4)"/><circle cx="3" cy="3" r="3" stroke="#000" stroke-width=".2" fill="#9e633b" transform="matrix(1.79845 0 0 1.79845 274.7 212.4)"/><circle cx="3" cy="3" r="3" stroke="#000" stroke-width=".2" fill="#9e633b" transform="matrix(1.79845 0 0 1.79845 169.9 222.9)"/><circle cx="3" cy="3" r="3" stroke="#000" stroke-width=".2" fill="#9e633b" transform="matrix(1.79845 0 0 1.79845 180.4 222.9)"/><circle cx="3" cy="3" r="3" stroke="#000" stroke-width=".2" fill="#9e633b" transform="matrix(1.79845 0 0 1.79845 190.8 222.9)"/><circle cx="3" cy="3" r="3" stroke="#000" stroke-width=".2" fill="#9e633b" transform="matrix(1.79845 0 0 1.79845 211.8 222.9)"/><circle cx="3" cy="3" r="3" stroke="#000" stroke-width=".2" fill="#9e633b" transform="matrix(1.79845 0 0 1.79845 285.1 222.9)"/><circle cx="3" cy="3" r="3" stroke="#000" stroke-width=".2" fill="#9e633b" transform="matrix(1.79845 0 0 1.79845 295.6 222.9)"/><circle cx="3" cy="3" r="3" stroke="#000" stroke-width=".2" fill="#9e633b" transform="matrix(1.79845 0 0 1.79845 306 222.9)"/><circle cx="3" cy="3" r="3" stroke="#000" stroke-width=".2" fill="#9e633b" transform="matrix(1.79845 0 0 1.79845 337.5 222.9)"/><circle cx="3" cy="3" r="3" stroke="#000" stroke-width=".2" fill="#9e633b" transform="matrix(1.79845 0 0 1.79845 348 222.9)"/><circle cx="3" cy="3" r="3" stroke="#000" stroke-width=".2" fill="#9e633b" transform="matrix(1.79845 0 0 1.79845 149 233.3)"/><circle cx="3" cy="3" r="3" stroke="#000" stroke-width=".2" fill="#9e633b" transform="matrix(1.79845 0 0 1.79845 190.8 233.3)"/><circle cx="3" cy="3" r="3" stroke="#000" stroke-width=".2" fill="#9e633b" transform="matrix(1.79845 0 0 1.79845 222.3 233.3)"/><circle cx="3" cy="3" r="3" stroke="#000" stroke-width=".2" fill="#9e633b" transform="matrix(1.79845 0 0 1.79845 306 233.3)"/><circle cx="3" cy="3" r="3" stroke="#000" stroke-width=".2" fill="#9e633b" transform="matrix(1.79845 0 0 1.79845 327 233.3)"/><circle cx="3" cy="3" r="3" stroke="#000" stroke-width=".2" fill="#9e633b" transform="matrix(1.79845 0 0 1.79845 337.5 233.3)"/><circle cx="3" cy="3" r="3" stroke="#000" stroke-width=".2" fill="#9e633b" transform="matrix(1.79845 0 0 1.79845 149 243.8)"/><circle cx="3" cy="3" r="3" stroke="#000" stroke-width=".2" fill="#9e633b" transform="matrix(1.79845 0 0 1.79845 159.4 243.8)"/><circle cx="3" cy="3" r="3" stroke="#000" stroke-width=".2" fill="#9e633b" transform="matrix(1.79845 0 0 1.79845 180.4 243.8)"/><circle cx="3" cy="3" r="3" stroke="#000" stroke-width=".2" fill="#9e633b" transform="matrix(1.79845 0 0 1.79845 190.8 243.8)"/><circle cx="3" cy="3" r="3" stroke="#000" stroke-width=".2" fill="#9e633b" transform="matrix(1.79845 0 0 1.79845 211.8 243.8)"/><circle cx="3" cy="3" r="3" stroke="#000" stroke-width=".2" fill="#9e633b" transform="matrix(1.79845 0 0 1.79845 222.3 243.8)"/><circle cx="3" cy="3" r="3" stroke="#000" stroke-width=".2" fill="#9e633b" transform="matrix(1.79845 0 0 1.79845 295.6 243.8)"/><circle cx="3" cy="3" r="3" stroke="#000" stroke-width=".2" fill="#9e633b" transform="matrix(1.79845 0 0 1.79845 316.6 243.8)"/><circle cx="3" cy="3" r="3" stroke="#000" stroke-width=".2" fill="#9e633b" transform="matrix(1.79845 0 0 1.79845 327 243.8)"/><circle cx="3" cy="3" r="3" stroke="#000" stroke-width=".2" fill="#9e633b" transform="matrix(1.79845 0 0 1.79845 337.5 243.8)"/><circle cx="3" cy="3" r="3" stroke="#000" stroke-width=".2" fill="#9e633b" transform="matrix(1.79845 0 0 1.79845 348 243.8)"/><circle cx="3" cy="3" r="3" stroke="#000" stroke-width=".2" fill="#9e633b" transform="matrix(1.79845 0 0 1.79845 149 254.3)"/><circle cx="3" cy="3" r="3" stroke="#000" stroke-width=".2" fill="#9e633b" transform="matrix(1.79845 0 0 1.79845 180.4 254.3)"/><circle cx="3" cy="3" r="3" stroke="#000" stroke-width=".2" fill="#9e633b" transform="matrix(1.79845 0 0 1.79845 201.3 254.3)"/><circle cx="3" cy="3" r="3" stroke="#000" stroke-width=".2" fill="#9e633b" transform="matrix(1.79845 0 0 1.79845 222.3 254.3)"/><circle cx="3" cy="3" r="3" stroke="#000" stroke-width=".2" fill="#9e633b" transform="matrix(1.79845 0 0 1.79845 295.6 254.3)"/><circle cx="3" cy="3" r="3" stroke="#000" stroke-width=".2" fill="#9e633b" transform="matrix(1.79845 0 0 1.79845 306 254.3)"/><circle cx="3" cy="3" r="3" stroke="#000" stroke-width=".2" fill="#9e633b" transform="matrix(1.79845 0 0 1.79845 316.6 254.3)"/><circle cx="3" cy="3" r="3" stroke="#000" stroke-width=".2" fill="#694633" transform="matrix(1.79845 0 0 1.79845 327 254.3)"/><circle cx="3" cy="3" r="3" stroke="#000" stroke-width=".2" fill="#694633" transform="matrix(1.79845 0 0 1.79845 337.5 254.3)"/><circle cx="3" cy="3" r="3" stroke="#000" stroke-width=".2" fill="#9e633b" transform="matrix(1.79845 0 0 1.79845 211.8 264.8)"/><circle cx="3" cy="3" r="3" stroke="#000" stroke-width=".2" fill="#9e633b" transform="matrix(1.79845 0 0 1.79845 285.1 264.8)"/><circle cx="3" cy="3" r="3" stroke="#000" stroke-width=".2" fill="#9e633b" transform="matrix(1.79845 0 0 1.79845 316.6 264.8)"/><circle cx="3" cy="3" r="3" stroke="#000" stroke-width=".2" fill="#694633" transform="matrix(1.79845 0 0 1.79845 327 264.8)"/><circle cx="3" cy="3" r="3" stroke="#000" stroke-width=".2" fill="#694633" transform="matrix(1.79845 0 0 1.79845 337.5 264.8)"/><circle cx="3" cy="3" r="3" stroke="#000" stroke-width=".2" fill="#9e633b" transform="matrix(1.79845 0 0 1.79845 348 264.8)"/><circle cx="3" cy="3" r="3" stroke="#000" stroke-width=".2" fill="#9e633b" transform="matrix(1.79845 0 0 1.79845 232.8 275.2)"/><circle cx="3" cy="3" r="3" stroke="#000" stroke-width=".2" fill="#9e633b" transform="matrix(1.79845 0 0 1.79845 243.2 275.2)"/><circle cx="3" cy="3" r="3" stroke="#000" stroke-width=".2" fill="#9e633b" transform="matrix(1.79845 0 0 1.79845 253.7 275.2)"/><circle cx="3" cy="3" r="3" stroke="#000" stroke-width=".2" fill="#9e633b" transform="matrix(1.79845 0 0 1.79845 264.2 275.2)"/><circle cx="3" cy="3" r="3" stroke="#000" stroke-width=".2" fill="#694633" transform="matrix(1.79845 0 0 1.79845 274.7 275.2)"/><circle cx="3" cy="3" r="3" stroke="#000" stroke-width=".2" fill="#9e633b" transform="matrix(1.79845 0 0 1.79845 337.5 275.2)"/><circle cx="3" cy="3" r="3" stroke="#000" stroke-width=".2" fill="#9e633b" transform="matrix(1.79845 0 0 1.79845 348 275.2)"/><circle cx="3" cy="3" r="3" stroke="#000" stroke-width=".2" fill="#9e633b" transform="matrix(1.79845 0 0 1.79845 264.2 285.7)"/><circle cx="3" cy="3" r="3" stroke="#000" stroke-width=".2" fill="#694633" transform="matrix(1.79845 0 0 1.79845 274.7 285.7)"/><circle cx="3" cy="3" r="3" stroke="#000" stroke-width=".2" fill="#9e633b" transform="matrix(1.79845 0 0 1.79845 348 285.7)"/><circle cx="3" cy="3" r="3" stroke="#000" stroke-width=".2" fill="#9e633b" transform="matrix(1.79845 0 0 1.79845 243.2 296.2)"/><circle cx="3" cy="3" r="3" stroke="#000" stroke-width=".2" fill="#9e633b" transform="matrix(1.79845 0 0 1.79845 253.7 296.2)"/><circle cx="3" cy="3" r="3" stroke="#000" stroke-width=".2" fill="#694633" transform="matrix(1.79845 0 0 1.79845 337.5 296.2)"/><circle cx="3" cy="3" r="3" stroke="#000" stroke-width=".2" fill="#9e633b" transform="matrix(1.79845 0 0 1.79845 232.8 306.7)"/><circle cx="3" cy="3" r="3" stroke="#000" stroke-width=".2" fill="#694633" transform="matrix(1.79845 0 0 1.79845 274.7 306.7)"/><circle cx="3" cy="3" r="3" stroke="#000" stroke-width=".2" fill="#694633" transform="matrix(1.79845 0 0 1.79845 337.5 306.7)"/><circle cx="3" cy="3" r="3" stroke="#000" stroke-width=".2" fill="#9e633b" transform="matrix(1.79845 0 0 1.79845 348 306.7)"/><circle cx="3" cy="3" r="3" stroke="#000" stroke-width=".2" fill="#9e633b" transform="matrix(1.79845 0 0 1.79845 232.8 317.1)"/><circle cx="3" cy="3" r="3" stroke="#000" stroke-width=".2" fill="#694633" transform="matrix(1.79845 0 0 1.79845 285.1 317.1)"/><circle cx="3" cy="3" r="3" stroke="#000" stroke-width=".2" fill="#9e633b" transform="matrix(1.79845 0 0 1.79845 337.5 317.1)"/><circle cx="3" cy="3" r="3" stroke="#000" stroke-width=".2" fill="#9e633b" transform="matrix(1.79845 0 0 1.79845 232.8 327.6)"/><circle cx="3" cy="3" r="3" stroke="#000" stroke-width=".2" fill="#9e633b" transform="matrix(1.79845 0 0 1.79845 243.2 327.6)"/><circle cx="3" cy="3" r="3" stroke="#000" stroke-width=".2" fill="#9e633b" transform="matrix(1.79845 0 0 1.79845 253.7 327.6)"/><circle cx="3" cy="3" r="3" stroke="#000" stroke-width=".2" fill="#9e633b" transform="matrix(1.79845 0 0 1.79845 264.2 327.6)"/><circle cx="3" cy="3" r="3" stroke="#000" stroke-width=".2" fill="#694633" transform="matrix(1.79845 0 0 1.79845 285.1 327.6)"/><circle cx="3" cy="3" r="3" stroke="#000" stroke-width=".2" fill="#694633" transform="matrix(1.79845 0 0 1.79845 316.6 327.6)"/><circle cx="3" cy="3" r="3" stroke="#000" stroke-width=".2" fill="#9e633b" transform="matrix(1.79845 0 0 1.79845 337.5 327.6)"/><circle cx="3" cy="3" r="3" stroke="#000" stroke-width=".2" fill="#9e633b" transform="matrix(1.79845 0 0 1.79845 243.2 338.1)"/><circle cx="3" cy="3" r="3" stroke="#000" stroke-width=".2" fill="#9e633b" transform="matrix(1.79845 0 0 1.79845 253.7 338.1)"/><circle cx="3" cy="3" r="3" stroke="#000" stroke-width=".2" fill="#9e633b" transform="matrix(1.79845 0 0 1.79845 274.7 338.1)"/><circle cx="3" cy="3" r="3" stroke="#000" stroke-width=".2" fill="#694633" transform="matrix(1.79845 0 0 1.79845 285.1 338.1)"/><circle cx="3" cy="3" r="3" stroke="#000" stroke-width=".2" fill="#694633" transform="matrix(1.79845 0 0 1.79845 295.6 338.1)"/><circle cx="3" cy="3" r="3" stroke="#000" stroke-width=".2" fill="#694633" transform="matrix(1.79845 0 0 1.79845 306 338.1)"/><circle cx="3" cy="3" r="3" stroke="#000" stroke-width=".2" fill="#694633" transform="matrix(1.79845 0 0 1.79845 316.6 338.1)"/><circle cx="3" cy="3" r="3" stroke="#000" stroke-width=".2" fill="#9e633b" transform="matrix(1.79845 0 0 1.79845 337.5 338.1)"/><circle cx="3" cy="3" r="3" stroke="#000" stroke-width=".2" fill="#9e633b" transform="matrix(1.79845 0 0 1.79845 274.7 348.6)"/><circle cx="3" cy="3" r="3" stroke="#000" stroke-width=".2" fill="#9e633b" transform="matrix(1.79845 0 0 1.79845 285.1 348.6)"/><circle cx="3" cy="3" r="3" stroke="#000" stroke-width=".2" fill="#9e633b" transform="matrix(1.79845 0 0 1.79845 295.6 348.6)"/><circle cx="3" cy="3" r="3" stroke="#000" stroke-width=".2" fill="#9e633b" transform="matrix(1.79845 0 0 1.79845 316.6 348.6)"/><circle cx="3" cy="3" r="3" stroke="#000" stroke-width=".2" fill="#9e633b" transform="matrix(1.79845 0 0 1.79845 337.5 348.6)"/><circle cx="3" cy="3" r="3" stroke="#000" stroke-width=".2" fill="#9e633b" transform="matrix(1.79845 0 0 1.79845 348 348.6)"/><path d="M4.5 14h5.1C12 14 14 12 14 9.6V4.5C14 2 12 0 9.5 0H4.4C2 0 0 2 0 4.4v5.1C0 12 2 14 4.5 14zM12 4.8v4.4c0 1.5-1.3 2.8-2.8 2.8H4.8A2.7 2.7 0 012 9.2V4.8C2 3.3 3.3 2 4.8 2h4.4C10.8 2 12 3.2 12 4.8z" stroke="#000" stroke-width=".1" fill="url(#b)" transform="matrix(5.23822 0 0 5.23822 149 139)"/><path d="M4.5 14h5.1C12 14 14 12 14 9.6V4.5C14 2 12 0 9.5 0H4.4C2 0 0 2 0 4.4v5.1C0 12 2 14 4.5 14zM12 4.8v4.4c0 1.5-1.3 2.8-2.8 2.8H4.8A2.7 2.7 0 012 9.2V4.8C2 3.3 3.3 2 4.8 2h4.4C10.8 2 12 3.2 12 4.8z" stroke="#000" stroke-width=".1" fill="url(#c)" transform="matrix(5.23822 0 0 5.23822 295.6 139)"/><path d="M4.5 14h5.1C12 14 14 12 14 9.6V4.5C14 2 12 0 9.5 0H4.4C2 0 0 2 0 4.4v5.1C0 12 2 14 4.5 14zM12 4.8v4.4c0 1.5-1.3 2.8-2.8 2.8H4.8A2.7 2.7 0 012 9.2V4.8C2 3.3 3.3 2 4.8 2h4.4C10.8 2 12 3.2 12 4.8z" stroke="#000" stroke-width=".1" fill="url(#d)" transform="matrix(5.23822 0 0 5.23822 149 285.7)"/><path d="M6 1.7v2.7C6 5.2 5.2 6 4.3 6H1.7C.7 6 0 5.3 0 4.3V1.7C0 .8.8 0 1.7 0h2.7C5.3 0 6 .7 6 1.7z" stroke="#000" stroke-width=".1" fill="url(#e)" transform="matrix(5.23822 0 0 5.23822 169.9 160)"/><path d="M6 1.7v2.7C6 5.2 5.2 6 4.3 6H1.7C.7 6 0 5.3 0 4.3V1.7C0 .8.8 0 1.7 0h2.7C5.3 0 6 .7 6 1.7z" stroke="#000" stroke-width=".1" fill="url(#f)" transform="matrix(5.23822 0 0 5.23822 316.6 160)"/><path d="M6 1.7v2.7C6 5.2 5.2 6 4.3 6H1.7C.7 6 0 5.3 0 4.3V1.7C0 .8.8 0 1.7 0h2.7C5.3 0 6 .7 6 1.7z" stroke="#000" stroke-width=".1" fill="url(#g)" transform="matrix(5.23822 0 0 5.23822 169.9 306.7)"/><circle cx="3" cy="3" r="3" stroke="#000" stroke-width=".2" fill="#9e633b" transform="matrix(1.79845 0 0 1.79845 159.2 233.4)"/><circle cx="3" cy="3" r="3" stroke="#000" stroke-width=".2" fill="#9e633b" transform="matrix(1.79845 0 0 1.79845 169.6 233.4)"/><circle cx="3" cy="3" r="3" stroke="#000" stroke-width=".2" fill="#9e633b" transform="matrix(1.79845 0 0 1.79845 159.4 254.3)"/><circle cx="3" cy="3" r="3" stroke="#000" stroke-width=".2" fill="#9e633b" transform="matrix(1.79845 0 0 1.79845 159.4 264.8)"/><circle cx="3" cy="3" r="3" stroke="#000" stroke-width=".2" fill="#9e633b" transform="matrix(1.79845 0 0 1.79845 169.8 264.8)"/><circle cx="3" cy="3" r="3" stroke="#000" stroke-width=".2" fill="#9e633b" transform="matrix(1.79845 0 0 1.79845 180.3 264.8)"/></g><path d="M334.2 311.2l-.7-.7-.7-.7-.7-.6-.6-.7-.7-.7-.7-.7-.7-.7-.7-.7.4-.4.3-.3.4-.4.3-.3.4-.4.3-.3.4-.4.4-.4a1.7 1.7 0 00.3-.5 1.5 1.5 0 00-.3-1.6h0l-.1-.1h0l-.1-.1h0-.1v-.1h-.1v-.1h0l-.1-.1h0l-.1-.1h0-.1v-.1a1.6 1.6 0 00-.6-.4 1.5 1.5 0 00-1.6.4l-.5.4-.4.4-.4.5-.5.4-.4.5-.4.4-.5.4-.4.5s0 0 0 0 0 0 0 0 0 0 0 0 0 0 0 0 0 0 0 0 0 0 0 0 0 0 0 0 0 0 0 0 0 0 0 0 0 0 0 0 0 0 0 0v-.1s0 0 0 0 0 0 0 0 0 0 0 0 0 0 0 0l-.6-.7-.7-.6-.6-.6-.6-.7-.7-.6-.6-.6-.6-.6-.7-.7-.2.2-.2.1-.3.2-.2.1.6-.6.6-.6.6-.6.6-.6 1.6-1.6 1.6-1.6 1.6-1.6 1.7-1.7-.2-.2-.1-.2-.2-.3-.1-.2-.1-.2-.2-.3-.1-.2-.2-.2.3.1.2.1.3.1.2.2h.3l.2.2.3.1.2.2.6-.6.5-.5.5-.5.5-.5.6-.6.5-.5.5-.5.5-.5s0 0 0 0 0 0 0 0 0 0 0 0 0 0 0 0 0 0 0 0 0 0 0 0 0 0 0 0 0 0 0 0l.3-1 .2-1 .2-.8.2-1 .2-.9.2-1 .2-.8.3-1s0 0 0 0 0 0 0 0 0 0 0 0 0 0 0 0 0 0 0 0 0 0 0 0h-.1s0 0 0 0h0-.1 0l-1 .2-.9.2-.9.2-.9.2-.9.2-1 .2-.8.2-1 .2s0 0 0 0 0 0 0 0 0 0 0 0 0 0 0 0 0 0 0 0 0 0 0 0 0 0 0 0 0 0 0 0l-1 1-.9 1-1 1-1 1-.9.9-1 1-1 1-.9.9v.1l.2.2v.1l.2.2v.1l.2.2v.1l.2.2h-2.1l-.4.5-.5.5-.5.5-.4.4-.5.5-.5.5-.5.5-.4.4.1.3.2.4.2.3.2.3v.1l.1.2.1.1v.2l-.7-.8-.7-.8-.8-.7-.8-.8-1.6-1.6-1.6-1.6-1.6-1.7-1.7-1.6-.2.2-.2.1-.2.1-.3.2-.2.1-.2.2-.3.1-.2.2.1-.3.1-.2.2-.3v-.2l.2-.3.1-.2.2-.3v-.2l-.4-.6-.6-.5-.5-.5-.5-.5-.5-.6-.6-.5-.5-.5-.5-.5s0 0 0 0 0 0 0 0 0 0 0 0 0 0 0 0 0 0 0 0 0 0 0 0 0 0 0 0 0 0 0 0l-1-.3-.9-.2-1-.2-.9-.2-.9-.2-1-.2-.8-.3-1-.2s0 0 0 0 0 0 0 0 0 0 0 0 0 0 0 0 0 0 0 0 0 0 0 0v.1s0 0 0 0h0v.1h0l.2 1 .2.8.2 1 .2.9.2.9.2.9.2 1 .3.8s0 0 0 0 0 0 0 0 0 0 0 0 0 0 0 0 0 0 0 0 0 0 0 0 0 0 0 0 0 0 0 0l1 1 1 1 .9 1 1 1 1 .9.9 1 1 1 1 .9v-.1h.2l.2-.2h.1l.2-.2h.1l.1-.2h.2v2l.5.4.5.5.5.5.5.4.4.5.5.5.5.5.4.4.4-.2.3-.1.3-.2.3-.2h.2l.1-.1.1-.1.2-.1-.4.4-.4.4-.3.3-.4.4-1.3 1.3-1.3 1.3-1.3 1.3-1.3 1.3s0 0 0 0 0 0 0 0 0 0 0 0 0 0 0 0 0 0 0 0 0 0 0 0 0 0 0 0 0 0 0 0l-.4-.4-.4-.4-.5-.4-.4-.5-.5-.4-.4-.5-.4-.4-.5-.4-.2-.2a1.5 1.5 0 00-1.4-.2 1.7 1.7 0 00-.5.4h0-.1v.1h-.1 0l-.1.1h0v.1h-.1v.1h-.1v.1h-.1 0l-.1.1h0a1.5 1.5 0 000 2.2l.3.4.4.4.3.3.4.4.3.3.4.4.4.3.3.4-.7.7-.7.7-.7.7-.6.7-.7.7-.7.6-.7.7-.7.7a2.1 2.1 0 00-.7 1.6 2.2 2.2 0 00.4 1.2l.3.3h0l.1.1v.1h.1v.1h.2v.2l.5.4.4.5.5.4.4.4.4.4.4.5.5.4.4.4a2.1 2.1 0 00.7.5 2.3 2.3 0 00.8.1 2.2 2.2 0 001.2-.3l.4-.3.7-.7.7-.7.6-.7.7-.7.7-.6.7-.7.7-.7.7-.7.4.3.3.4.4.4.3.3.4.4.3.3.4.4.4.3a1.5 1.5 0 001.3.5 1.4 1.4 0 00.6-.3l.2-.2h.1l.1-.1h0v-.1h.1v-.1h.1v-.1h.1l.1-.1h0v-.1h.1a1.5 1.5 0 00.4-.6 1.5 1.5 0 00-.4-1.6l-.4-.5-.4-.4-.5-.4-.4-.5-.5-.4-.4-.5-.4-.4-.5-.4s0 0 0 0 0 0 0 0 0 0 0 0 0 0 0 0 0 0 0 0 0 0 0 0 0 0 0 0 0 0 0 0 0 0 0 0 0 0 0 0 0 0 0 0h.1s0 0 0 0 0 0 0 0 0 0 0 0 0 0 0 0l.7-.7.6-.6.6-.6.7-.7.6-.6.6-.6.6-.6.7-.7-.2-.2-.1-.3-.2-.2-.1-.3.2.3.2.2.2.2.2.2 1.3 1.3 1.3 1.3 1.3 1.3 1.3 1.3s0 0 0 0 0 0 0 0 0 0 0 0 0 0 0 0 0 0 0 0a.2.2 0 000 0s0 0 0 0l-.4.4-.4.4-.4.5-.5.4-.4.5-.4.4-.5.4-.4.5a1.5 1.5 0 00-.4.8 1.5 1.5 0 00.2 1c0 .2.1.3.2.3h0v.1h.1v.1h.1v.1h.1v.1h.1v.1h.1v.1h.1v.1h0a1.7 1.7 0 00.6.4 1.5 1.5 0 00.9 0 1.5 1.5 0 00.8-.4l.3-.3.4-.4.3-.3.4-.4.3-.3.4-.4.4-.4.3-.3.7.7.7.7.7.7.7.6.7.7.7.7.7.7.6.7a2.2 2.2 0 002.4.5 2.3 2.3 0 00.7-.5h.1v-.1h.1v-.1l.1-.1h.1v-.1h.1l.4-.5.5-.4.4-.5.4-.4.5-.4.4-.4.4-.5.4-.4a2.1 2.1 0 00.6-1.1 2.2 2.2 0 00-.6-2z" fill="#694633" stroke="#000" stroke-width=".3"/></svg>
