<svg width="43" height="43" viewBox="0 0 612 612" xmlns="http://www.w3.org/2000/svg">
  <path fill="#ebcd99" filter="url(#grayscale)" d="M 305.973 612.015 C 300.289 612.015 295.098 608.804 292.555 603.722 L 246.414 511.441 C 157.493 485.226 95.973 403.374 95.973 310.015 C 95.973 194.222 190.18 100.015 305.973 100.015 C 421.766 100.015 515.973 194.222 515.973 310.015 C 515.973 403.378 454.453 485.23 365.528 511.445 L 319.387 603.722 C 316.848 608.804 311.653 612.015 305.973 612.015 Z M 305.973 612.015"></path>
  <path fill="#54341f" filter="url(#grayscale)" d="M 305.882 100.015 L 305.882 612.015 C 311.562 612.015 316.757 608.804 319.296 603.722 L 365.437 511.445 C 454.363 485.23 515.882 403.378 515.882 310.015 C 515.882 194.222 421.675 100.015 305.882 100.015 Z M 305.882 100.015"></path>
  <path fill="#966840" filter="url(#grayscale)" d="M 420.273 380.747 L 388.977 349.459 C 388.977 349.459 406.783 331.158 407.19 330.118 C 408.455 327.006 399.38 315.249 398.084 314.747 C 394.873 313.627 391.294 314.528 388.977 317.036 L 369.073 336.377 L 339.32 306.441 L 385.571 260.142 L 378.737 249.903 L 390.12 255.597 L 414.007 231.689 L 424.253 189.026 L 381.017 198.129 L 337.207 242.505 L 341.759 249.326 L 329.81 249.326 L 308.76 270.946 L 313.88 281.756 L 305.92 272.654 L 259.834 227.151 L 249.594 233.974 L 254.713 222.591 L 231.392 198.698 L 188.724 188.458 L 198.388 231.126 L 242.764 275.504 L 249.029 271.517 L 249.029 282.901 L 270.65 303.943 L 281.46 298.26 L 243.335 336.377 L 222.293 315.894 C 219.989 314.209 217.003 313.783 214.323 314.747 C 213.235 315.329 207.49 320.441 207.49 320.441 C 203.859 323.821 203.859 329.586 207.49 332.963 L 223.427 349.459 L 192.135 380.747 C 189.543 383.066 188.091 386.39 188.155 389.862 C 188.223 392.297 189.01 394.668 190.434 396.677 L 214.323 420.577 C 215.443 421.79 216.789 422.761 218.303 423.422 C 219.782 423.874 221.315 424.062 222.854 423.988 C 225.253 424.087 227.618 423.49 229.691 422.278 L 263.252 389.285 L 279.742 405.209 C 281.602 407.324 284.362 408.388 287.153 408.065 C 288.405 407.774 297.483 399.694 297.957 398.387 C 299.077 395.169 298.183 391.596 295.677 389.285 L 276.334 369.376 L 305.843 339.676 L 336.081 369.376 L 316.723 389.285 C 315.518 390.537 314.731 392.128 314.451 393.837 C 314.157 395.802 314.564 397.822 315.594 399.526 C 315.594 400.666 322.276 406.986 323.557 407.494 C 325.228 408.02 327.011 408.02 328.682 407.494 C 330.397 407.212 331.982 406.418 333.221 405.209 L 349.156 389.285 L 380.451 420.577 C 384.001 424.21 389.395 425.333 394.108 423.422 C 395.593 422.728 423.205 394.517 423.685 392.128 C 424.541 388.004 423.251 383.726 420.273 380.747 Z" stroke="#000" stroke-width=".3"></path>
  <path fill="#486600" d="M 589.234 107.855 L 408.818 288.271 C 401.165 295.935 390.783 300.234 379.956 300.234 C 369.13 300.234 358.747 295.924 351.095 288.271 L 261.676 198.853 C 245.744 182.909 245.744 157.072 261.687 141.117 C 269.341 133.464 279.713 129.166 290.538 129.166 C 301.364 129.166 311.736 133.464 319.389 141.117 L 372.678 194.418 C 374.612 196.351 377.238 197.442 379.968 197.442 C 382.697 197.442 385.324 196.351 387.257 194.418 L 531.522 50.142 C 539.186 42.489 549.557 38.179 560.395 38.179 C 571.21 38.19 581.592 42.489 589.246 50.142 C 605.177 66.086 605.177 91.922 589.234 107.855 Z"></path>
  <filter id="grayscale">
    <feColorMatrix type="saturate" values="0.5"/>
  </filter>
</svg>
