<svg xmlns="http://www.w3.org/2000/svg" viewBox="0 0 496 496">
  <circle cx="248" cy="24" r="24" fill="#383a39"/>
  <circle cx="248" cy="472" r="24" fill="#eceeee"/>
  <circle cx="136" cy="53.6" r="24" fill="#77807f"/>
  <path d="M380.8 430.4a24.7 24.7 0 01-8.8 32.8 24.7 24.7 0 01-32.8-8.8 24.7 24.7 0 018.8-32.8 24.5 24.5 0 0132.8 8.8z" fill="#f2f4f4"/>
  <path d="M65.6 115.2a24.3 24.3 0 018.8 32.8 24.3 24.3 0 01-32.8 8.8c-11.2-6.4-15.2-20.8-8.8-32.8s21.6-15.2 32.8-8.8z" fill="#9faaa9"/>
  <path d="M454.4 339.2a24.3 24.3 0 018.8 32.8 24.3 24.3 0 01-32.8 8.8 24.3 24.3 0 01-8.8-32.8 24.3 24.3 0 0132.8-8.8z" fill="#f2f7f7"/>
  <circle cx="24" cy="248" r="24" fill="#b2bbba"/>
  <circle cx="472" cy="248" r="24" fill="#fff"/>
  <path d="M41.6 339.2a24.7 24.7 0 0132.8 8.8 24.7 24.7 0 01-8.8 32.8c-11.2 6.4-25.6 2.4-32.8-8.8s-2.4-25.6 8.8-32.8z" fill="#c5cccb"/>
  <path d="M430.4 115.2a24.7 24.7 0 0132.8 8.8 24.7 24.7 0 01-8.8 32.8 24.7 24.7 0 01-32.8-8.8 24.5 24.5 0 018.8-32.8z"/>
  <path d="M115.2 430.4a24.3 24.3 0 0132.8-8.8 24.3 24.3 0 018.8 32.8 24.3 24.3 0 01-32.8 8.8 24.7 24.7 0 01-8.8-32.8z" fill="#d9dddd"/>
  <path d="M339.2 41.6a24.3 24.3 0 0132.8-8.8 24.3 24.3 0 018.8 32.8 24.3 24.3 0 01-32.8 8.8 24.3 24.3 0 01-8.8-32.8z" fill="#111"/>
</svg>