<svg viewBox="0 0 500 500" xmlns="http://www.w3.org/2000/svg"><defs><radialGradient gradientUnits="userSpaceOnUse" cx="274.3" cy="352.4" r="180.6" id="h" gradientTransform="matrix(1.32 0 0 1.32 -1126.2 334.9)"><stop offset="0" stop-color="#0b0056"/><stop offset="1"/></radialGradient><radialGradient gradientUnits="userSpaceOnUse" cx="274.3" cy="352.4" r="0" id="q"><stop offset="0" stop-color="#0b0056"/><stop offset="1"/></radialGradient><radialGradient gradientUnits="userSpaceOnUse" cx="274.3" cy="352.4" r="0" id="r"><stop offset="0" stop-color="#0b0056"/><stop offset="1"/></radialGradient><radialGradient gradientUnits="userSpaceOnUse" cx="274.3" cy="352.4" r="10.8" id="A" gradientTransform="matrix(1.32 0 0 1.32 -1126.2 334.9)"><stop offset="0" stop-color="#0b0056"/><stop offset="1"/></radialGradient><radialGradient gradientUnits="userSpaceOnUse" cx="274.3" cy="190.8" r="0" id="s"><stop offset="0" stop-color="#694633"/><stop offset="1" stop-color="#241812"/></radialGradient><radialGradient gradientUnits="userSpaceOnUse" cx="274.3" cy="229.4" r="10.8" id="u" gradientTransform="matrix(1.32 0 0 1.32 -1126.2 334.9)"><stop offset="0" stop-color="#694633"/><stop offset="1" stop-color="#241812"/></radialGradient><radialGradient gradientUnits="userSpaceOnUse" cx="274.3" cy="270.4" r="10.8" id="v" gradientTransform="matrix(1.32 0 0 1.32 -1126.2 334.9)"><stop offset="0" stop-color="#694633"/><stop offset="1" stop-color="#241812"/></radialGradient><radialGradient gradientUnits="userSpaceOnUse" cx="274.3" cy="311.4" r="10.8" id="w" gradientTransform="matrix(1.32 0 0 1.32 -1126.2 334.9)"><stop offset="0" stop-color="#694633"/><stop offset="1" stop-color="#241812"/></radialGradient><radialGradient gradientUnits="userSpaceOnUse" cx="315.3" cy="352.4" r="0" id="n"><stop offset="0" stop-color="#694633"/><stop offset="1" stop-color="#241812"/></radialGradient><radialGradient gradientUnits="userSpaceOnUse" cx="356.3" cy="352.4" r="0" id="o"><stop offset="0" stop-color="#694633"/><stop offset="1" stop-color="#241812"/></radialGradient><radialGradient gradientUnits="userSpaceOnUse" cx="397.2" cy="352.4" r="0" id="p"><stop offset="0" stop-color="#694633"/><stop offset="1" stop-color="#241812"/></radialGradient><radialGradient gradientUnits="userSpaceOnUse" cx="435.9" cy="352.4" r="16.1" id="j" gradientTransform="matrix(1.32 0 0 1.32 -1126.2 334.9)"><stop offset="0" stop-color="#694633"/><stop offset="1" stop-color="#241812"/></radialGradient><radialGradient gradientUnits="userSpaceOnUse" cx="274.3" cy="393.3" r="10.8" id="x" gradientTransform="matrix(1.32 0 0 1.32 -1126.2 334.9)"><stop offset="0" stop-color="#694633"/><stop offset="1" stop-color="#241812"/></radialGradient><radialGradient gradientUnits="userSpaceOnUse" cx="274.3" cy="434.3" r="10.8" id="y" gradientTransform="matrix(1.32 0 0 1.32 -1126.2 334.9)"><stop offset="0" stop-color="#694633"/><stop offset="1" stop-color="#241812"/></radialGradient><radialGradient gradientUnits="userSpaceOnUse" cx="274.3" cy="475.3" r="10.8" id="z" gradientTransform="matrix(1.32 0 0 1.32 -1126.2 334.9)"><stop offset="0" stop-color="#694633"/><stop offset="1" stop-color="#241812"/></radialGradient><radialGradient gradientUnits="userSpaceOnUse" cx="274.3" cy="513.9" r="0" id="t"><stop offset="0" stop-color="#694633"/><stop offset="1" stop-color="#241812"/></radialGradient><radialGradient gradientUnits="userSpaceOnUse" cx="233.3" cy="352.4" r="0" id="m"><stop offset="0" stop-color="#694633"/><stop offset="1" stop-color="#241812"/></radialGradient><radialGradient gradientUnits="userSpaceOnUse" cx="192.3" cy="352.4" r="0" id="l"><stop offset="0" stop-color="#694633"/><stop offset="1" stop-color="#241812"/></radialGradient><radialGradient gradientUnits="userSpaceOnUse" cx="151.3" cy="352.4" r="0" id="k"><stop offset="0" stop-color="#694633"/><stop offset="1" stop-color="#241812"/></radialGradient><radialGradient gradientUnits="userSpaceOnUse" cx="112.7" cy="352.4" r="16.1" id="i" gradientTransform="matrix(1.32 0 0 1.32 -1126.2 334.9)"><stop offset="0" stop-color="#694633"/><stop offset="1" stop-color="#241812"/></radialGradient><radialGradient gradientUnits="userSpaceOnUse" cx="3" cy="3" r="3" id="e"><stop offset="0" stop-color="#9e623b"/><stop offset="1" stop-color="#54341f"/></radialGradient><radialGradient gradientUnits="userSpaceOnUse" cx="7" cy="7" r="7" id="b"><stop offset="0" stop-color="#9e623b"/><stop offset="1" stop-color="#54341f"/></radialGradient><radialGradient gradientUnits="userSpaceOnUse" cx="7" cy="7" r="7" id="c"><stop offset="0" stop-color="#9e623b"/><stop offset="1" stop-color="#54341f"/></radialGradient><radialGradient gradientUnits="userSpaceOnUse" cx="3" cy="3" r="3" id="f"><stop offset="0" stop-color="#9e623b"/><stop offset="1" stop-color="#54341f"/></radialGradient><radialGradient gradientUnits="userSpaceOnUse" cx="3" cy="3" r="3" id="g"><stop offset="0" stop-color="#9e623b"/><stop offset="1" stop-color="#54341f"/></radialGradient><radialGradient gradientUnits="userSpaceOnUse" cx="7" cy="7" r="7" id="d"><stop offset="0" stop-color="#9e623b"/><stop offset="1" stop-color="#54341f"/></radialGradient><radialGradient gradientUnits="userSpaceOnUse" cx="-764.2" cy="800" r="238.4" id="a"><stop offset="0" stop-color="#694633"/><stop offset="1" stop-color="#241812"/></radialGradient><radialGradient gradientUnits="userSpaceOnUse" cx="824.8" cy="356.7" r="38" id="B"><stop offset="0" stop-color="#7c0101"/><stop offset="1" stop-color="#170000"/></radialGradient><radialGradient gradientUnits="userSpaceOnUse" cx="828.3" cy="442" r="94.1" id="C"><stop offset="0" stop-color="#7c0101"/><stop offset="1" stop-color="#170000"/></radialGradient></defs><path d="M-525.8 800c0 183.5-198.6 298.2-357.5 206.4A238.4 238.4 0 01-1002.5 800c0-183.5 198.6-298.2 357.5-206.5A238.4 238.4 0 01-525.8 800z" stroke-width="22" stroke-linecap="square" stroke-linejoin="round" fill="url(#a)" stroke="#000" transform="translate(1014 -550.2)"/><g><g><path fill="#EBCD99" stroke="#000" d="M350.3 109.9l-3 2.5-3 2.5-2.9 2.4-2.9 2.5-3-2.7-2.9-2.6-3-2.7-2.9-2.7-15.5-1.2-15.6-1.3-15.5-1.2-15.6-1.2-3.2 8-3.3 7.9-3.2 8-3.2 8-4.7-8.3-4.8-8.2-4.7-8.3-4.8-8.2-29.2-1-29.2-1-29.1-.9-29.2-1v305.3l7.6-.3 7.7-.3 7.6-.3 7.7-.2 3-9.5 3-9.5 3-9.5 3-9.4 3.5 9.2 3.5 9.2 3.6 9.3 3.5 9.2 28.8-1.4 28.8-1.4 28.8-1.4 28.8-1.4 2.5-3.9 2.5-3.8 2.5-3.8 2.5-3.8 2.6 3.6 2.7 3.6 2.6 3.7 2.6 3.6 20.8-1.5 20.8-1.4 20.8-1.5 20.8-1.5V112l-10.3-.5-10.3-.5-10.3-.5z" stroke-width=".38378"/><path d="M379.8 133.3a310.5 310.5 0 01-17 27 223 223 0 01-41 43.6 219.4 219.4 0 01-67 37.5c-15.4 5.2-31.4 8.6-47.3 10s-32 .6-47.5-2.5-30.3-8.5-44.1-16.6v172.2l7.6-.3 7.7-.3 7.6-.3 7.7-.2 3-9.5 3-9.5 3-9.5 3-9.4 3.5 9.2 3.5 9.2 3.6 9.3 3.5 9.2 28.8-1.4 28.8-1.4 28.8-1.4 28.8-1.4 2.5-3.9 2.5-3.8 2.5-3.8 2.5-3.8 2.6 3.6 2.7 3.6 2.6 3.7 2.6 3.6 20.8-1.5 20.8-1.4 20.8-1.5 20.8-1.5V112H389l-.8-.1a126.7 126.7 0 01-5.7 16.3 67 67 0 01-2.7 5.2z" fill="#C99F67" stroke="#000" stroke-width=".38378"/><path d="M298.7 220.5a248.6 248.6 0 0033.7-25.9 217.4 217.4 0 0020.7-21.9 223 223 0 0018.5-25.6 309.8 309.8 0 0010.9-19 77.9 77.9 0 005.7-16.3l-9.5-.5-9.5-.5-9.5-.5-9.4-.4-3 2.5-3 2.5-2.9 2.4-2.9 2.5-3-2.7-2.9-2.6-3-2.7-2.9-2.7-15.5-1.2-15.6-1.3-15.5-1.2-15.6-1.2-3.2 8-3.3 7.9-3.2 8-3.2 8-4.7-8.3-4.8-8.2-4.7-8.3-4.8-8.2-29.2-1-29.2-1-29.1-.9-29.2-1v133.1c13.8 8 28.7 13.5 44.1 16.6s31.5 3.8 47.5 2.5 31.9-4.8 47.3-10a211.3 211.3 0 0043.9-20.9z" fill="#EBCD99" stroke="#000" stroke-width=".38378"/><g stroke="#000"><path d="M79.2 108a142.7 142.7 0 01-26-2.5c-3.3-.8-6-1.8-7.8-2.8-1.9-1-3-2.2-3-3.5v305.3c0 1.2 1.1 2.4 3 3.4s4.5 2 7.8 2.8a128.2 128.2 0 0040.2 1.9c4.5-.4 8.4-1 11.7-1.9 3.4-.8 6-1.7 7.9-2.8s2.9-2.2 2.9-3.4V99.2c0 1.3-1 2.4-3 3.5-1.8 1-4.4 2-7.8 2.8-3.3.8-7.2 1.4-11.6 1.8s-9.3.7-14.3.7z" fill="#EBCD99" stroke-width=".38378"/><path d="M92.1 187.2c3.2 14.2 5.9 31.5 8.2 50.5 2.3 19 4.3 39.5 6 60 1.7 20.5 3 41 4.3 59.8 1.3 18.8 2.4 35.9 3.5 49.7a7 7 0 001.3-1.3l.4-.7v-306c0 1.3-1 2.4-2.8 3.5-1.9 1-4.5 2-7.9 2.8-3.3.8-7.2 1.4-11.6 1.8a157.8 157.8 0 01-33-.5 78.7 78.7 0 01-13.2-3.2 45.2 45.2 0 004.5 5.6 174.9 174.9 0 0125.3 36.4 171.3 171.3 0 0115 41.6z" fill="#D8B480" stroke-width=".38378"/><path d="M79.2 108a142.7 142.7 0 0026-2.5c3.3-.8 6-1.8 7.8-2.8 1.9-1 2.9-2.2 2.9-3.5 0-1.2-1-2.3-3-3.4s-4.4-2-7.8-2.8c-3.3-.8-7.2-1.4-11.6-1.9a142.7 142.7 0 00-40.3 2c-3.3.7-6 1.7-7.8 2.7s-3 2.2-3 3.4c0 1.3 1.1 2.4 3 3.5 1.8 1 4.5 2 7.8 2.8s7.3 1.4 11.7 1.8 9.2.7 14.3.7z" fill="#9E633B" stroke-width=".38378"/></g><path d="M428 382.2a156.5 156.5 0 00-26 2.3c-3.3.7-6 1.6-7.9 2.6-1.8 1-2.8 2-2.8 3s1 2.3 2.8 3.2c1.9 1 4.6 1.8 7.9 2.6a156.5 156.5 0 0051.9 0c3.3-.8 6-1.6 7.9-2.6s2.8-2 2.8-3.1-1-2.2-2.8-3.1c-1.9-1-4.6-1.9-7.9-2.6a158.7 158.7 0 00-26-2.3z" fill="#9E633B" stroke="#000" stroke-width=".38378"/><path d="M115.9 99.2c0 1.3-1 2.4-2.9 3.5-1.9 1-4.5 2-7.9 2.8-3.3.8-7.2 1.4-11.6 1.8a157.8 157.8 0 01-16.8.7V98.6a83.7 83.7 0 0027 2 106.6 106.6 0 0012.2-1.4z" fill="#694633" stroke="#000" stroke-width=".38378"/><g stroke="#000"><path d="M391.3 390.2s0 0 0 0 0 0 0 0 0 0 0 0 0 0 0 0 0 0 0 0 0 0 0 0h0s0 0 0 0h0z" fill="#D8B480" stroke-width=".38378"/><path d="M391.3 390.2l3.4-.6a106.8 106.8 0 0135.8 1.2V382.2H429.2a115.6 115.6 0 00-1.3 0 156.6 156.6 0 00-25.9 2.3c-3.3.7-6 1.6-7.8 2.6-1.9 1-3 2-3 3z" fill="#694633" stroke-width=".38378"/><path d="M428 99.2a156.5 156.5 0 00-26 2.4c-3.3.7-6 1.6-7.9 2.5-1.8 1-2.8 2-2.8 3.2V390.2s0 0 0 0 0 0 0 0h0s0 0 0 0c0-1.1 1-2.2 2.9-3.1 1.8-1 4.5-1.9 7.8-2.6a156.6 156.6 0 0152.7.2c3.1.7 5.6 1.6 7.3 2.5 1.7 1 2.6 2 2.6 3V107.3c0-1.2-1-2.2-2.8-3.2-1.9-1-4.6-1.8-7.9-2.5a156.5 156.5 0 00-26-2.3z" fill="#EBCD99" stroke-width=".38378"/><path d="M428.9 181a156.6 156.6 0 0114.5-39.3c3-6.1 6.4-12.1 10-18a621 621 0 0110.9-17.5c-.6-1-2-2-4.1-2.8a45 45 0 00-8-2.2 158.3 158.3 0 00-50.2.4c-3.3.7-6 1.6-7.9 2.5-1.8 1-2.8 2-2.8 3.2V390.2s0 0 0 0 0 0 0 0h0s0 0 0 0c0-1 .7-1.8 2-2.7 1.3-.8 3.2-1.5 5.6-2.2 2.4-.7 5.3-1.3 8.6-1.8 3.2-.4 6.8-.8 10.7-1-1-12.2-1.5-27.8-1.6-45a1060.5 1060.5 0 015.4-110.8c1.9-17.4 4.1-33.2 6.9-45.6z" fill="#D8B480" stroke-width=".38378"/></g></g></g><g fill="#333"><circle cx="3" cy="3" r="3" stroke="#000" stroke-width=".2" fill="#9e633b" transform="matrix(1.79845 0 0 1.79845 232.8 139)"/><circle cx="3" cy="3" r="3" stroke="#000" stroke-width=".2" fill="#9e633b" transform="matrix(1.79845 0 0 1.79845 253.7 139)"/><circle cx="3" cy="3" r="3" stroke="#000" stroke-width=".2" fill="#9e633b" transform="matrix(1.79845 0 0 1.79845 232.8 149.5)"/><circle cx="3" cy="3" r="3" stroke="#000" stroke-width=".2" fill="#9e633b" transform="matrix(1.79845 0 0 1.79845 243.2 149.5)"/><circle cx="3" cy="3" r="3" stroke="#000" stroke-width=".2" fill="#9e633b" transform="matrix(1.79845 0 0 1.79845 253.7 149.5)"/><circle cx="3" cy="3" r="3" stroke="#000" stroke-width=".2" fill="#9e633b" transform="matrix(1.79845 0 0 1.79845 264.2 149.5)"/><circle cx="3" cy="3" r="3" stroke="#000" stroke-width=".2" fill="#9e633b" transform="matrix(1.79845 0 0 1.79845 232.8 160)"/><circle cx="3" cy="3" r="3" stroke="#000" stroke-width=".2" fill="#9e633b" transform="matrix(1.79845 0 0 1.79845 243.2 160)"/><circle cx="3" cy="3" r="3" stroke="#000" stroke-width=".2" fill="#9e633b" transform="matrix(1.79845 0 0 1.79845 264.2 160)"/><circle cx="3" cy="3" r="3" stroke="#000" stroke-width=".2" fill="#9e633b" transform="matrix(1.79845 0 0 1.79845 274.7 170.5)"/><circle cx="3" cy="3" r="3" stroke="#000" stroke-width=".2" fill="#9e633b" transform="matrix(1.79845 0 0 1.79845 243.2 181)"/><circle cx="3" cy="3" r="3" stroke="#000" stroke-width=".2" fill="#9e633b" transform="matrix(1.79845 0 0 1.79845 253.7 181)"/><circle cx="3" cy="3" r="3" stroke="#000" stroke-width=".2" fill="#9e633b" transform="matrix(1.79845 0 0 1.79845 232.8 191.4)"/><circle cx="3" cy="3" r="3" stroke="#000" stroke-width=".2" fill="#9e633b" transform="matrix(1.79845 0 0 1.79845 243.2 191.4)"/><circle cx="3" cy="3" r="3" stroke="#000" stroke-width=".2" fill="#9e633b" transform="matrix(1.79845 0 0 1.79845 253.7 191.4)"/><circle cx="3" cy="3" r="3" stroke="#000" stroke-width=".2" fill="#9e633b" transform="matrix(1.79845 0 0 1.79845 274.7 191.4)"/><circle cx="3" cy="3" r="3" stroke="#000" stroke-width=".2" fill="#9e633b" transform="matrix(1.79845 0 0 1.79845 232.8 201.9)"/><circle cx="3" cy="3" r="3" stroke="#000" stroke-width=".2" fill="#9e633b" transform="matrix(1.79845 0 0 1.79845 253.7 201.9)"/><circle cx="3" cy="3" r="3" stroke="#000" stroke-width=".2" fill="#9e633b" transform="matrix(1.79845 0 0 1.79845 274.7 201.9)"/><circle cx="3" cy="3" r="3" stroke="#000" stroke-width=".2" fill="#9e633b" transform="matrix(1.79845 0 0 1.79845 232.8 212.4)"/><circle cx="3" cy="3" r="3" stroke="#000" stroke-width=".2" fill="#9e633b" transform="matrix(1.79845 0 0 1.79845 264.2 212.4)"/><circle cx="3" cy="3" r="3" stroke="#000" stroke-width=".2" fill="#9e633b" transform="matrix(1.79845 0 0 1.79845 274.7 212.4)"/><circle cx="3" cy="3" r="3" stroke="#000" stroke-width=".2" fill="#9e633b" transform="matrix(1.79845 0 0 1.79845 169.9 222.9)"/><circle cx="3" cy="3" r="3" stroke="#000" stroke-width=".2" fill="#9e633b" transform="matrix(1.79845 0 0 1.79845 180.4 222.9)"/><circle cx="3" cy="3" r="3" stroke="#000" stroke-width=".2" fill="#9e633b" transform="matrix(1.79845 0 0 1.79845 190.8 222.9)"/><circle cx="3" cy="3" r="3" stroke="#000" stroke-width=".2" fill="#9e633b" transform="matrix(1.79845 0 0 1.79845 211.8 222.9)"/><circle cx="3" cy="3" r="3" stroke="#000" stroke-width=".2" fill="#9e633b" transform="matrix(1.79845 0 0 1.79845 285.1 222.9)"/><circle cx="3" cy="3" r="3" stroke="#000" stroke-width=".2" fill="#9e633b" transform="matrix(1.79845 0 0 1.79845 295.6 222.9)"/><circle cx="3" cy="3" r="3" stroke="#000" stroke-width=".2" fill="#9e633b" transform="matrix(1.79845 0 0 1.79845 306 222.9)"/><circle cx="3" cy="3" r="3" stroke="#000" stroke-width=".2" fill="#9e633b" transform="matrix(1.79845 0 0 1.79845 337.5 222.9)"/><circle cx="3" cy="3" r="3" stroke="#000" stroke-width=".2" fill="#9e633b" transform="matrix(1.79845 0 0 1.79845 348 222.9)"/><circle cx="3" cy="3" r="3" stroke="#000" stroke-width=".2" fill="#9e633b" transform="matrix(1.79845 0 0 1.79845 149 233.3)"/><circle cx="3" cy="3" r="3" stroke="#000" stroke-width=".2" fill="#9e633b" transform="matrix(1.79845 0 0 1.79845 190.8 233.3)"/><circle cx="3" cy="3" r="3" stroke="#000" stroke-width=".2" fill="#9e633b" transform="matrix(1.79845 0 0 1.79845 222.3 233.3)"/><circle cx="3" cy="3" r="3" stroke="#000" stroke-width=".2" fill="#9e633b" transform="matrix(1.79845 0 0 1.79845 306 233.3)"/><circle cx="3" cy="3" r="3" stroke="#000" stroke-width=".2" fill="#9e633b" transform="matrix(1.79845 0 0 1.79845 327 233.3)"/><circle cx="3" cy="3" r="3" stroke="#000" stroke-width=".2" fill="#9e633b" transform="matrix(1.79845 0 0 1.79845 337.5 233.3)"/><circle cx="3" cy="3" r="3" stroke="#000" stroke-width=".2" fill="#9e633b" transform="matrix(1.79845 0 0 1.79845 149 243.8)"/><circle cx="3" cy="3" r="3" stroke="#000" stroke-width=".2" fill="#9e633b" transform="matrix(1.79845 0 0 1.79845 159.4 243.8)"/><circle cx="3" cy="3" r="3" stroke="#000" stroke-width=".2" fill="#9e633b" transform="matrix(1.79845 0 0 1.79845 180.4 243.8)"/><circle cx="3" cy="3" r="3" stroke="#000" stroke-width=".2" fill="#9e633b" transform="matrix(1.79845 0 0 1.79845 190.8 243.8)"/><circle cx="3" cy="3" r="3" stroke="#000" stroke-width=".2" fill="#9e633b" transform="matrix(1.79845 0 0 1.79845 211.8 243.8)"/><circle cx="3" cy="3" r="3" stroke="#000" stroke-width=".2" fill="#9e633b" transform="matrix(1.79845 0 0 1.79845 222.3 243.8)"/><circle cx="3" cy="3" r="3" stroke="#000" stroke-width=".2" fill="#9e633b" transform="matrix(1.79845 0 0 1.79845 295.6 243.8)"/><circle cx="3" cy="3" r="3" stroke="#000" stroke-width=".2" fill="#9e633b" transform="matrix(1.79845 0 0 1.79845 316.6 243.8)"/><circle cx="3" cy="3" r="3" stroke="#000" stroke-width=".2" fill="#9e633b" transform="matrix(1.79845 0 0 1.79845 327 243.8)"/><circle cx="3" cy="3" r="3" stroke="#000" stroke-width=".2" fill="#9e633b" transform="matrix(1.79845 0 0 1.79845 337.5 243.8)"/><circle cx="3" cy="3" r="3" stroke="#000" stroke-width=".2" fill="#9e633b" transform="matrix(1.79845 0 0 1.79845 348 243.8)"/><circle cx="3" cy="3" r="3" stroke="#000" stroke-width=".2" fill="#9e633b" transform="matrix(1.79845 0 0 1.79845 149 254.3)"/><circle cx="3" cy="3" r="3" stroke="#000" stroke-width=".2" fill="#9e633b" transform="matrix(1.79845 0 0 1.79845 180.4 254.3)"/><circle cx="3" cy="3" r="3" stroke="#000" stroke-width=".2" fill="#9e633b" transform="matrix(1.79845 0 0 1.79845 201.3 254.3)"/><circle cx="3" cy="3" r="3" stroke="#000" stroke-width=".2" fill="#9e633b" transform="matrix(1.79845 0 0 1.79845 222.3 254.3)"/><circle cx="3" cy="3" r="3" stroke="#000" stroke-width=".2" fill="#9e633b" transform="matrix(1.79845 0 0 1.79845 295.6 254.3)"/><circle cx="3" cy="3" r="3" stroke="#000" stroke-width=".2" fill="#9e633b" transform="matrix(1.79845 0 0 1.79845 306 254.3)"/><circle cx="3" cy="3" r="3" stroke="#000" stroke-width=".2" fill="#9e633b" transform="matrix(1.79845 0 0 1.79845 316.6 254.3)"/><circle cx="3" cy="3" r="3" stroke="#000" stroke-width=".2" fill="#694633" transform="matrix(1.79845 0 0 1.79845 327 254.3)"/><circle cx="3" cy="3" r="3" stroke="#000" stroke-width=".2" fill="#694633" transform="matrix(1.79845 0 0 1.79845 337.5 254.3)"/><circle cx="3" cy="3" r="3" stroke="#000" stroke-width=".2" fill="#9e633b" transform="matrix(1.79845 0 0 1.79845 211.8 264.8)"/><circle cx="3" cy="3" r="3" stroke="#000" stroke-width=".2" fill="#9e633b" transform="matrix(1.79845 0 0 1.79845 285.1 264.8)"/><circle cx="3" cy="3" r="3" stroke="#000" stroke-width=".2" fill="#9e633b" transform="matrix(1.79845 0 0 1.79845 316.6 264.8)"/><circle cx="3" cy="3" r="3" stroke="#000" stroke-width=".2" fill="#694633" transform="matrix(1.79845 0 0 1.79845 327 264.8)"/><circle cx="3" cy="3" r="3" stroke="#000" stroke-width=".2" fill="#694633" transform="matrix(1.79845 0 0 1.79845 337.5 264.8)"/><circle cx="3" cy="3" r="3" stroke="#000" stroke-width=".2" fill="#9e633b" transform="matrix(1.79845 0 0 1.79845 348 264.8)"/><circle cx="3" cy="3" r="3" stroke="#000" stroke-width=".2" fill="#9e633b" transform="matrix(1.79845 0 0 1.79845 232.8 275.2)"/><circle cx="3" cy="3" r="3" stroke="#000" stroke-width=".2" fill="#9e633b" transform="matrix(1.79845 0 0 1.79845 243.2 275.2)"/><circle cx="3" cy="3" r="3" stroke="#000" stroke-width=".2" fill="#9e633b" transform="matrix(1.79845 0 0 1.79845 253.7 275.2)"/><circle cx="3" cy="3" r="3" stroke="#000" stroke-width=".2" fill="#9e633b" transform="matrix(1.79845 0 0 1.79845 264.2 275.2)"/><circle cx="3" cy="3" r="3" stroke="#000" stroke-width=".2" fill="#694633" transform="matrix(1.79845 0 0 1.79845 274.7 275.2)"/><circle cx="3" cy="3" r="3" stroke="#000" stroke-width=".2" fill="#9e633b" transform="matrix(1.79845 0 0 1.79845 337.5 275.2)"/><circle cx="3" cy="3" r="3" stroke="#000" stroke-width=".2" fill="#9e633b" transform="matrix(1.79845 0 0 1.79845 348 275.2)"/><circle cx="3" cy="3" r="3" stroke="#000" stroke-width=".2" fill="#9e633b" transform="matrix(1.79845 0 0 1.79845 264.2 285.7)"/><circle cx="3" cy="3" r="3" stroke="#000" stroke-width=".2" fill="#694633" transform="matrix(1.79845 0 0 1.79845 274.7 285.7)"/><circle cx="3" cy="3" r="3" stroke="#000" stroke-width=".2" fill="#9e633b" transform="matrix(1.79845 0 0 1.79845 348 285.7)"/><circle cx="3" cy="3" r="3" stroke="#000" stroke-width=".2" fill="#9e633b" transform="matrix(1.79845 0 0 1.79845 243.2 296.2)"/><circle cx="3" cy="3" r="3" stroke="#000" stroke-width=".2" fill="#9e633b" transform="matrix(1.79845 0 0 1.79845 253.7 296.2)"/><circle cx="3" cy="3" r="3" stroke="#000" stroke-width=".2" fill="#694633" transform="matrix(1.79845 0 0 1.79845 337.5 296.2)"/><circle cx="3" cy="3" r="3" stroke="#000" stroke-width=".2" fill="#9e633b" transform="matrix(1.79845 0 0 1.79845 232.8 306.7)"/><circle cx="3" cy="3" r="3" stroke="#000" stroke-width=".2" fill="#694633" transform="matrix(1.79845 0 0 1.79845 274.7 306.7)"/><circle cx="3" cy="3" r="3" stroke="#000" stroke-width=".2" fill="#694633" transform="matrix(1.79845 0 0 1.79845 337.5 306.7)"/><circle cx="3" cy="3" r="3" stroke="#000" stroke-width=".2" fill="#9e633b" transform="matrix(1.79845 0 0 1.79845 348 306.7)"/><circle cx="3" cy="3" r="3" stroke="#000" stroke-width=".2" fill="#9e633b" transform="matrix(1.79845 0 0 1.79845 232.8 317.1)"/><circle cx="3" cy="3" r="3" stroke="#000" stroke-width=".2" fill="#694633" transform="matrix(1.79845 0 0 1.79845 285.1 317.1)"/><circle cx="3" cy="3" r="3" stroke="#000" stroke-width=".2" fill="#9e633b" transform="matrix(1.79845 0 0 1.79845 337.5 317.1)"/><circle cx="3" cy="3" r="3" stroke="#000" stroke-width=".2" fill="#9e633b" transform="matrix(1.79845 0 0 1.79845 232.8 327.6)"/><circle cx="3" cy="3" r="3" stroke="#000" stroke-width=".2" fill="#9e633b" transform="matrix(1.79845 0 0 1.79845 243.2 327.6)"/><circle cx="3" cy="3" r="3" stroke="#000" stroke-width=".2" fill="#9e633b" transform="matrix(1.79845 0 0 1.79845 253.7 327.6)"/><circle cx="3" cy="3" r="3" stroke="#000" stroke-width=".2" fill="#9e633b" transform="matrix(1.79845 0 0 1.79845 264.2 327.6)"/><circle cx="3" cy="3" r="3" stroke="#000" stroke-width=".2" fill="#694633" transform="matrix(1.79845 0 0 1.79845 285.1 327.6)"/><circle cx="3" cy="3" r="3" stroke="#000" stroke-width=".2" fill="#694633" transform="matrix(1.79845 0 0 1.79845 316.6 327.6)"/><circle cx="3" cy="3" r="3" stroke="#000" stroke-width=".2" fill="#9e633b" transform="matrix(1.79845 0 0 1.79845 337.5 327.6)"/><circle cx="3" cy="3" r="3" stroke="#000" stroke-width=".2" fill="#9e633b" transform="matrix(1.79845 0 0 1.79845 243.2 338.1)"/><circle cx="3" cy="3" r="3" stroke="#000" stroke-width=".2" fill="#9e633b" transform="matrix(1.79845 0 0 1.79845 253.7 338.1)"/><circle cx="3" cy="3" r="3" stroke="#000" stroke-width=".2" fill="#9e633b" transform="matrix(1.79845 0 0 1.79845 274.7 338.1)"/><circle cx="3" cy="3" r="3" stroke="#000" stroke-width=".2" fill="#694633" transform="matrix(1.79845 0 0 1.79845 285.1 338.1)"/><circle cx="3" cy="3" r="3" stroke="#000" stroke-width=".2" fill="#694633" transform="matrix(1.79845 0 0 1.79845 295.6 338.1)"/><circle cx="3" cy="3" r="3" stroke="#000" stroke-width=".2" fill="#694633" transform="matrix(1.79845 0 0 1.79845 306 338.1)"/><circle cx="3" cy="3" r="3" stroke="#000" stroke-width=".2" fill="#694633" transform="matrix(1.79845 0 0 1.79845 316.6 338.1)"/><circle cx="3" cy="3" r="3" stroke="#000" stroke-width=".2" fill="#9e633b" transform="matrix(1.79845 0 0 1.79845 337.5 338.1)"/><circle cx="3" cy="3" r="3" stroke="#000" stroke-width=".2" fill="#9e633b" transform="matrix(1.79845 0 0 1.79845 274.7 348.6)"/><circle cx="3" cy="3" r="3" stroke="#000" stroke-width=".2" fill="#9e633b" transform="matrix(1.79845 0 0 1.79845 285.1 348.6)"/><circle cx="3" cy="3" r="3" stroke="#000" stroke-width=".2" fill="#9e633b" transform="matrix(1.79845 0 0 1.79845 295.6 348.6)"/><circle cx="3" cy="3" r="3" stroke="#000" stroke-width=".2" fill="#9e633b" transform="matrix(1.79845 0 0 1.79845 316.6 348.6)"/><circle cx="3" cy="3" r="3" stroke="#000" stroke-width=".2" fill="#9e633b" transform="matrix(1.79845 0 0 1.79845 337.5 348.6)"/><circle cx="3" cy="3" r="3" stroke="#000" stroke-width=".2" fill="#9e633b" transform="matrix(1.79845 0 0 1.79845 348 348.6)"/><path d="M4.5 14h5.1C12 14 14 12 14 9.6V4.5C14 2 12 0 9.5 0H4.4C2 0 0 2 0 4.4v5.1C0 12 2 14 4.5 14zM12 4.8v4.4c0 1.5-1.3 2.8-2.8 2.8H4.8A2.7 2.7 0 012 9.2V4.8C2 3.3 3.3 2 4.8 2h4.4C10.8 2 12 3.2 12 4.8z" stroke="#000" stroke-width=".1" fill="url(#b)" transform="matrix(5.23822 0 0 5.23822 149 139)"/><path d="M4.5 14h5.1C12 14 14 12 14 9.6V4.5C14 2 12 0 9.5 0H4.4C2 0 0 2 0 4.4v5.1C0 12 2 14 4.5 14zM12 4.8v4.4c0 1.5-1.3 2.8-2.8 2.8H4.8A2.7 2.7 0 012 9.2V4.8C2 3.3 3.3 2 4.8 2h4.4C10.8 2 12 3.2 12 4.8z" stroke="#000" stroke-width=".1" fill="url(#c)" transform="matrix(5.23822 0 0 5.23822 295.6 139)"/><path d="M4.5 14h5.1C12 14 14 12 14 9.6V4.5C14 2 12 0 9.5 0H4.4C2 0 0 2 0 4.4v5.1C0 12 2 14 4.5 14zM12 4.8v4.4c0 1.5-1.3 2.8-2.8 2.8H4.8A2.7 2.7 0 012 9.2V4.8C2 3.3 3.3 2 4.8 2h4.4C10.8 2 12 3.2 12 4.8z" stroke="#000" stroke-width=".1" fill="url(#d)" transform="matrix(5.23822 0 0 5.23822 149 285.7)"/><path d="M6 1.7v2.7C6 5.2 5.2 6 4.3 6H1.7C.7 6 0 5.3 0 4.3V1.7C0 .8.8 0 1.7 0h2.7C5.3 0 6 .7 6 1.7z" stroke="#000" stroke-width=".1" fill="url(#e)" transform="matrix(5.23822 0 0 5.23822 169.9 160)"/><path d="M6 1.7v2.7C6 5.2 5.2 6 4.3 6H1.7C.7 6 0 5.3 0 4.3V1.7C0 .8.8 0 1.7 0h2.7C5.3 0 6 .7 6 1.7z" stroke="#000" stroke-width=".1" fill="url(#f)" transform="matrix(5.23822 0 0 5.23822 316.6 160)"/><path d="M6 1.7v2.7C6 5.2 5.2 6 4.3 6H1.7C.7 6 0 5.3 0 4.3V1.7C0 .8.8 0 1.7 0h2.7C5.3 0 6 .7 6 1.7z" stroke="#000" stroke-width=".1" fill="url(#g)" transform="matrix(5.23822 0 0 5.23822 169.9 306.7)"/><circle cx="3" cy="3" r="3" stroke="#000" stroke-width=".2" fill="#9e633b" transform="matrix(1.79845 0 0 1.79845 159.2 233.4)"/><circle cx="3" cy="3" r="3" stroke="#000" stroke-width=".2" fill="#9e633b" transform="matrix(1.79845 0 0 1.79845 169.6 233.4)"/><circle cx="3" cy="3" r="3" stroke="#000" stroke-width=".2" fill="#9e633b" transform="matrix(1.79845 0 0 1.79845 159.4 254.3)"/><circle cx="3" cy="3" r="3" stroke="#000" stroke-width=".2" fill="#9e633b" transform="matrix(1.79845 0 0 1.79845 159.4 264.8)"/><circle cx="3" cy="3" r="3" stroke="#000" stroke-width=".2" fill="#9e633b" transform="matrix(1.79845 0 0 1.79845 169.8 264.8)"/><circle cx="3" cy="3" r="3" stroke="#000" stroke-width=".2" fill="#9e633b" transform="matrix(1.79845 0 0 1.79845 180.3 264.8)"/></g><path d="M-1002.5 800h476.7" fill-rule="evenodd" stroke-width="9.4" stroke="#000" fill="url(#h)" transform="translate(1014 -550.2)"/><path d="M-998.7 800h42.6" fill-rule="evenodd" stroke-width="21.7" fill="#694633" stroke="url(#i)" transform="translate(1014 -550.2)"/><path d="M-572.2 800h42.6" fill-rule="evenodd" stroke-width="21.7" fill="#694633" stroke="url(#j)" transform="translate(1014 -550.2)"/><path d="M-926.4 814.3v-28.6" fill-rule="evenodd" stroke-width="9.4" fill="#694633" stroke="url(#k)" transform="translate(1014 -550.2)"/><path d="M334.2 311.2l-.7-.7-.7-.7-.7-.6-.6-.7-.7-.7-.7-.7-.7-.7-.7-.7.4-.4.3-.3.4-.4.3-.3.4-.4.3-.3.4-.4.4-.4a1.7 1.7 0 00.3-.5 1.5 1.5 0 00-.3-1.6h0l-.1-.1h0l-.1-.1h0-.1v-.1h-.1v-.1h0l-.1-.1h0l-.1-.1h0-.1v-.1a1.6 1.6 0 00-.6-.4 1.5 1.5 0 00-1.6.4l-.5.4-.4.4-.4.5-.5.4-.4.5-.4.4-.5.4-.4.5s0 0 0 0 0 0 0 0 0 0 0 0 0 0 0 0 0 0 0 0 0 0 0 0 0 0 0 0 0 0 0 0 0 0 0 0 0 0 0 0 0 0 0 0v-.1s0 0 0 0 0 0 0 0 0 0 0 0 0 0 0 0l-.6-.7-.7-.6-.6-.6-.6-.7-.7-.6-.6-.6-.6-.6-.7-.7-.2.2-.2.1-.3.2-.2.1.6-.6.6-.6.6-.6.6-.6 1.6-1.6 1.6-1.6 1.6-1.6 1.7-1.7-.2-.2-.1-.2-.2-.3-.1-.2-.1-.2-.2-.3-.1-.2-.2-.2.3.1.2.1.3.1.2.2h.3l.2.2.3.1.2.2.6-.6.5-.5.5-.5.5-.5.6-.6.5-.5.5-.5.5-.5s0 0 0 0 0 0 0 0 0 0 0 0 0 0 0 0 0 0 0 0 0 0 0 0 0 0 0 0 0 0 0 0l.3-1 .2-1 .2-.8.2-1 .2-.9.2-1 .2-.8.3-1s0 0 0 0 0 0 0 0 0 0 0 0 0 0 0 0 0 0 0 0 0 0 0 0h-.1s0 0 0 0h0-.1 0l-1 .2-.9.2-.9.2-.9.2-.9.2-1 .2-.8.2-1 .2s0 0 0 0 0 0 0 0 0 0 0 0 0 0 0 0 0 0 0 0 0 0 0 0 0 0 0 0 0 0 0 0l-1 1-.9 1-1 1-1 1-.9.9-1 1-1 1-.9.9v.1l.2.2v.1l.2.2v.1l.2.2v.1l.2.2h-2.1l-.4.5-.5.5-.5.5-.4.4-.5.5-.5.5-.5.5-.4.4.1.3.2.4.2.3.2.3v.1l.1.2.1.1v.2l-.7-.8-.7-.8-.8-.7-.8-.8-1.6-1.6-1.6-1.6-1.6-1.7-1.7-1.6-.2.2-.2.1-.2.1-.3.2-.2.1-.2.2-.3.1-.2.2.1-.3.1-.2.2-.3v-.2l.2-.3.1-.2.2-.3v-.2l-.4-.6-.6-.5-.5-.5-.5-.5-.5-.6-.6-.5-.5-.5-.5-.5s0 0 0 0 0 0 0 0 0 0 0 0 0 0 0 0 0 0 0 0 0 0 0 0 0 0 0 0 0 0 0 0l-1-.3-.9-.2-1-.2-.9-.2-.9-.2-1-.2-.8-.3-1-.2s0 0 0 0 0 0 0 0 0 0 0 0 0 0 0 0 0 0 0 0 0 0 0 0v.1s0 0 0 0h0v.1h0l.2 1 .2.8.2 1 .2.9.2.9.2.9.2 1 .3.8s0 0 0 0 0 0 0 0 0 0 0 0 0 0 0 0 0 0 0 0 0 0 0 0 0 0 0 0 0 0 0 0l1 1 1 1 .9 1 1 1 1 .9.9 1 1 1 1 .9v-.1h.2l.2-.2h.1l.2-.2h.1l.1-.2h.2v2l.5.4.5.5.5.5.5.4.4.5.5.5.5.5.4.4.4-.2.3-.1.3-.2.3-.2h.2l.1-.1.1-.1.2-.1-.4.4-.4.4-.3.3-.4.4-1.3 1.3-1.3 1.3-1.3 1.3-1.3 1.3s0 0 0 0 0 0 0 0 0 0 0 0 0 0 0 0 0 0 0 0 0 0 0 0 0 0 0 0 0 0 0 0l-.4-.4-.4-.4-.5-.4-.4-.5-.5-.4-.4-.5-.4-.4-.5-.4-.2-.2a1.5 1.5 0 00-1.4-.2 1.7 1.7 0 00-.5.4h0-.1v.1h-.1 0l-.1.1h0v.1h-.1v.1h-.1v.1h-.1 0l-.1.1h0a1.5 1.5 0 000 2.2l.3.4.4.4.3.3.4.4.3.3.4.4.4.3.3.4-.7.7-.7.7-.7.7-.6.7-.7.7-.7.6-.7.7-.7.7a2.1 2.1 0 00-.7 1.6 2.2 2.2 0 00.4 1.2l.3.3h0l.1.1v.1h.1v.1h.2v.2l.5.4.4.5.5.4.4.4.4.4.4.5.5.4.4.4a2.1 2.1 0 00.7.5 2.3 2.3 0 00.8.1 2.2 2.2 0 001.2-.3l.4-.3.7-.7.7-.7.6-.7.7-.7.7-.6.7-.7.7-.7.7-.7.4.3.3.4.4.4.3.3.4.4.3.3.4.4.4.3a1.5 1.5 0 001.3.5 1.4 1.4 0 00.6-.3l.2-.2h.1l.1-.1h0v-.1h.1v-.1h.1v-.1h.1l.1-.1h0v-.1h.1a1.5 1.5 0 00.4-.6 1.5 1.5 0 00-.4-1.6l-.4-.5-.4-.4-.5-.4-.4-.5-.5-.4-.4-.5-.4-.4-.5-.4s0 0 0 0 0 0 0 0 0 0 0 0 0 0 0 0 0 0 0 0 0 0 0 0 0 0 0 0 0 0 0 0 0 0 0 0 0 0 0 0 0 0 0 0h.1s0 0 0 0 0 0 0 0 0 0 0 0 0 0 0 0l.7-.7.6-.6.6-.6.7-.7.6-.6.6-.6.6-.6.7-.7-.2-.2-.1-.3-.2-.2-.1-.3.2.3.2.2.2.2.2.2 1.3 1.3 1.3 1.3 1.3 1.3 1.3 1.3s0 0 0 0 0 0 0 0 0 0 0 0 0 0 0 0 0 0 0 0a.2.2 0 000 0s0 0 0 0l-.4.4-.4.4-.4.5-.5.4-.4.5-.4.4-.5.4-.4.5a1.5 1.5 0 00-.4.8 1.5 1.5 0 00.2 1c0 .2.1.3.2.3h0v.1h.1v.1h.1v.1h.1v.1h.1v.1h.1v.1h.1v.1h0a1.7 1.7 0 00.6.4 1.5 1.5 0 00.9 0 1.5 1.5 0 00.8-.4l.3-.3.4-.4.3-.3.4-.4.3-.3.4-.4.4-.4.3-.3.7.7.7.7.7.7.7.6.7.7.7.7.7.7.6.7a2.2 2.2 0 002.4.5 2.3 2.3 0 00.7-.5h.1v-.1h.1v-.1l.1-.1h.1v-.1h.1l.4-.5.5-.4.4-.5.4-.4.5-.4.4-.4.4-.5.4-.4a2.1 2.1 0 00.6-1.1 2.2 2.2 0 00-.6-2z" fill="#694633" stroke="#000" stroke-width=".3"/><path d="M-872.4 814.3v-28.6" fill-rule="evenodd" stroke-width="9.4" fill="#694633" stroke="url(#l)" transform="translate(1014 -550.2)"/><path d="M-818.3 814.3v-28.6" fill-rule="evenodd" stroke-width="9.4" fill="#694633" stroke="url(#m)" transform="translate(1014 -550.2)"/><path d="M-710 814.3v-28.6" fill-rule="evenodd" stroke-width="9.4" fill="#694633" stroke="url(#n)" transform="translate(1014 -550.2)"/><path d="M-656 814.3v-28.6" fill-rule="evenodd" stroke-width="9.4" fill="#694633" stroke="url(#o)" transform="translate(1014 -550.2)"/><path d="M-601.9 814.3v-28.6" fill-rule="evenodd" stroke-width="9.4" fill="#694633" stroke="url(#p)" transform="translate(1014 -550.2)"/><path d="M-764.2 814.3v-28.6" fill-rule="evenodd" stroke-width="9.4" stroke="#000" fill="url(#q)" transform="translate(1014 -550.2)"/><path d="M-764.2 561.6v476.8" fill-rule="evenodd" stroke-width="9.4" stroke="#000" fill="url(#r)" transform="translate(1014 -550.2)"/><path d="M-764.2 565.4V608" fill-rule="evenodd" stroke-width="21.7" fill="#694633" stroke="url(#s)" transform="translate(1014 -550.2)"/><path d="M-764.2 992v42.6" fill-rule="evenodd" stroke-width="21.7" fill="#694633" stroke="url(#t)" transform="translate(1014 -550.2)"/><path d="M-778.5 637.7h28.6" fill-rule="evenodd" stroke-width="9.4" fill="#694633" stroke="url(#u)" transform="translate(1014 -550.2)"/><path d="M-778.5 691.8h28.6" fill-rule="evenodd" stroke-width="9.4" fill="#694633" stroke="url(#v)" transform="translate(1014 -550.2)"/><path d="M-778.5 745.9h28.6" fill-rule="evenodd" stroke-width="9.4" fill="#694633" stroke="url(#w)" transform="translate(1014 -550.2)"/><path d="M-778.5 854h28.6" fill-rule="evenodd" stroke-width="9.4" fill="#694633" stroke="url(#x)" transform="translate(1014 -550.2)"/><path d="M-778.5 908.2h28.6" fill-rule="evenodd" stroke-width="9.4" fill="#694633" stroke="url(#y)" transform="translate(1014 -550.2)"/><path d="M-778.5 962.3h28.6" fill-rule="evenodd" stroke-width="9.4" fill="#694633" stroke="url(#z)" transform="translate(1014 -550.2)"/><path d="M-778.5 800h28.6" fill-rule="evenodd" stroke-width="9.4" stroke="#000" fill="url(#A)" transform="translate(1014 -550.2)"/><g stroke="#000"><path d="M809.3 352.9l.2.8.1.8.1.8.2.8.1.8.2.8.1.8.1.8.2.8.1.8.2.8.1.8.1.8.2.8.1.8.2.8a51.6 51.6 0 00-20.3 17l-.3.4c0 .2-.2.3-.3.5a51 51 0 00-1.6 2.4l-.2.5-.3.5-.3.5-.3.5a48.6 48.6 0 00-.5 1c0 .2-.2.4-.3.5l-.2.6-.2.5.8-.2.8-.3.9-.2.8-.2.8-.2.9-.2.8-.2.8-.3.9-.2.8-.2.8-.2.9-.2.8-.2.8-.3.9-.2.8-.2 1.8-.5 1.8-.4 1.8-.5 1.9-.5 1.8-.4 1.8-.5 1.8-.5 1.8-.4 1.8-.5 1.9-.5 1.8-.5 1.8-.4 1.8-.5 1.8-.5 1.8-.4 1.9-.5 2-.5 2.2-.6 2-.5 2.2-.6 2-.5 2.2-.6 2-.5 2.2-.6 2-.5 2.2-.5 2-.6 2.2-.5 2-.6 2.2-.5 2-.6 2.2-.5s0 0 0 0h-.1v-.1h-.1s0 0 0 0l-.1-.1s0 0 0 0l-.1-.1s0 0 0 0h-.1v-.1h-.1s0 0 0 0l-.1-.1s0 0 0 0l-.1-.1a51.8 51.8 0 00-31.5-9.2 49.8 49.8 0 00-4.6.5l-.2-.8-.1-.7-.1-.8-.2-.8v-.7l-.2-.8-.2-.7v-.8l-.2-.7-.2-.8v-.7l-.2-.8-.1-.7-.2-.8-.1-.7-.1-.8a23.6 23.6 0 004.6-2.5 30.2 30.2 0 006.4-5.7 14.8 14.8 0 001.9-3.5 8.3 8.3 0 00.4-2.4l-.1-1.2a14 14 0 00-3.7-7.1 13.8 13.8 0 00-16.5-2.4 13.2 13.2 0 00-5.5 5.7 13.7 13.7 0 00-.7 1.6 12.3 12.3 0 00-5.6-2 11.7 11.7 0 00-10.5 5 11.6 11.6 0 00-1.7 10 7.1 7.1 0 001.1 2 9.8 9.8 0 001.8 1.8 14.2 14.2 0 003.4 2 21.2 21.2 0 0010.2 2.1z" fill="url(#B)" transform="matrix(.4766 0 0 .4766 -144 50.5)"/><path d="M846.6 480.8l-.2-1.2-.2-1.3-.2-1.2-.2-1.2-.2-1.2-.2-1.2-.2-1.2-.3-1.2-.2-1.3-.2-1.2-.2-1.2-.2-1.2-.2-1.2-.2-1.2-.2-1.2-.3-1.3a51.8 51.8 0 0028-16.5 51 51 0 0012.2-30.2h.8l.8-.2.7-.2.8-.1.8-.1.8-.2.8-.1.7-.1.8-.2.8-.1.8-.1.8-.2.7-.1.8-.2h.8l.8-.2a23.6 23.6 0 002.4 4.7 30.2 30.2 0 005.8 6.3 14.8 14.8 0 003.4 1.9 8.3 8.3 0 002.4.4l1.2-.1a14 14 0 007.2-3.6 13.8 13.8 0 002.4-16.6 13.2 13.2 0 00-5.7-5.5 13.7 13.7 0 00-1.6-.7 12.3 12.3 0 002-5.6 10.6 10.6 0 00-.2-2.9 12 12 0 00-6.8-8.7 11.8 11.8 0 00-8-.6 7.1 7.1 0 00-2 1.1 9.9 9.9 0 00-1.8 1.8 14.2 14.2 0 00-2.1 3.4 21.2 21.2 0 00-2 10.2l-.7.2h-.6l-.7.2-.6.1-.7.1-.6.1-.7.1-.6.2h-.7l-.6.2h-.7l-.6.2-.7.1-.6.1-.7.1-.6.2a51.2 51.2 0 00-16.8-27s0 0 0 0h-.1s0 0 0 0h-.1v.1h-.1c-.1 0 0 0 0 0s0 0 0 0l-.1.1s0 0 0 0h-.1s0 0 0 0h-.1c-.1 0 0 .1 0 .1h-.1l-2 .6-2.1.5-2.1.5-2.1.6-2 .5-2.1.5-2.1.6-2 .5-2.2.5-2 .6-2.1.5-2 .6-2.2.5-2 .5-2.1.6-2 .5a16.9 16.9 0 013.8 8.5 20 20 0 01-.7 9.8 22.7 22.7 0 01-15.9 15 19.4 19.4 0 01-9.1-.1 16.7 16.7 0 01-12-13.7 20.4 20.4 0 011-11l-.8.2-.8.2-.9.2-.8.3-.8.2-.8.2-.9.2-.8.2-.8.2-.8.2-.9.2-.8.3-.8.2-.8.2-.8.2-.9.2a51.1 51.1 0 00-3 23.5l-1.3.3-1.3.2-1.4.2-1.3.3-1.3.2-1.3.2-1.4.3-1.3.2-1.3.2-1.4.2-1.3.3-1.3.2-1.4.2-1.3.3-1.3.2-1.3.2a18.9 18.9 0 00-2.6-4.5 28 28 0 00-4.8-5.2 18 18 0 00-3.5-2.1 10.9 10.9 0 00-2.4-.7 8 8 0 00-3.8.3 13.4 13.4 0 00-8.1 6.4 14 14 0 00-1.6 9.1 14 14 0 004.3 7.8 13.6 13.6 0 004.5 2.7 12.3 12.3 0 00-1.9 5.7 11.7 11.7 0 005 10.5 11.6 11.6 0 0010 1.7 7.1 7.1 0 002-1.2 10.5 10.5 0 001.8-1.8 15.6 15.6 0 002.2-3.6 23.4 23.4 0 002.3-10.6l1.2-.3 1.3-.2 1.3-.2 1.2-.2 1.3-.2 1.3-.3 1.2-.2 1.3-.2 1.2-.2 1.3-.2 1.3-.3 1.2-.2 1.3-.2 1.3-.2 1.2-.2 1.3-.3a10 10 0 01-.6 2v.3a16.3 16.3 0 01-1 1.9l-.2.2-.3.4-.2.3-.2.3-.2.4-.3.3-.2.3-.2.4-.3.3-.2.3-.2.4-.3.3-.2.3-.2.4-.3.3-.2.3-.2.3a11 11 0 00-2 7 10.6 10.6 0 004.6 8l1.6 1.1 1.6 1.2 1.7 1.1 1.6 1.1 1.6 1.2 1.7 1.1 1.6 1.2 1.6 1.1 1.7 1.2 1.6 1.1 1.6 1.2 1.6 1.1 1.7 1.2 1.6 1.1 1.6 1.2 1.7 1.1a11 11 0 007 2 10.5 10.5 0 007.2-3.7l.7-.9.2-.3.3-.3.2-.4.2-.3.2-.3.3-.4.2-.3.2-.3.3-.4.2-.3.2-.3.3-.3.2-.4.2-.3.3-.3.2-.4.1-.1.1-.2.2-.2v-.1a4.7 4.7 0 01.5-.5l.1-.1.2-.2h.1l.1-.2.2-.2h.1l.2-.2.1-.1.2-.2.2 1.3.2 1.2.2 1.2.2 1.2.3 1.2.2 1.3.2 1.2.2 1.2.2 1.2.2 1.3.2 1.2.3 1.2.2 1.2.2 1.3.2 1.2.2 1.2a18.9 18.9 0 00-4.6 2.5 28 28 0 00-5.2 4.9 18 18 0 00-2 3.4 10.9 10.9 0 00-.7 2.4 8.2 8.2 0 00.3 3.8 13.4 13.4 0 006.4 8.2 13.7 13.7 0 0019.6-7.3 12.3 12.3 0 005.7 2 11.7 11.7 0 0010.5-5 11.6 11.6 0 001.6-10 7.1 7.1 0 00-1.2-2 10.5 10.5 0 00-1.8-1.9 15.3 15.3 0 00-3.6-2.2 23.4 23.4 0 00-10.6-2.2zm-56.8-31.6a3.4 3.4 0 01-1.6 1.1 3.1 3.1 0 01-1.5.2 3 3 0 01-1.2-.4c-.1 0-.2 0-.3-.2h0v0h0a3.4 3.4 0 01-1.2-1.5 3.1 3.1 0 01-.1-1.5 3 3 0 01.3-1.2l.2-.3.3-.4.3-.5.4-.4.3-.5.3-.4.3-.4.3-.5.3-.4.3-.5.3-.4.3-.5.4-.4.3-.4.3-.5.3-.4.3-.5a3.4 3.4 0 011.5-1.1 3.1 3.1 0 011.5-.2 3 3 0 011.3.4l.2.1h0a3.4 3.4 0 011.2 1.5 3.1 3.1 0 01.2 1.6 3 3 0 01-.4 1.2l-.2.3-.3.4-.3.5-.3.4-.3.4-.3.5-.3.4-.3.5-.4.4-.3.5-.3.4-.3.4-.3.5-.3.4-.3.5-.3.4-.3.5zm15.7-17.3a2.3 2.3 0 010-.3 1.3 1.3 0 01.1-.2v-.1a1.2 1.2 0 01.2-.2s0 0 0 0a1.3 1.3 0 01.4-.3s0 0 0 0l.4-.3.3-.1.3-.2.4-.2.3-.2.3-.2.3-.1.4-.2.3-.2.3-.2.3-.2.4-.1.3-.2.3-.2.3-.2.4-.2.3-.2.3-.1.3-.2.4-.2.3-.2.3-.2.4-.1.3-.2.3-.2.3-.2.4-.2.3-.1.3-.2.3-.2.4-.2.3-.2a1.6 1.6 0 01.5-.1h.2a1.1 1.1 0 01.3 0 1.4 1.4 0 01.9.6 2 2 0 01.1.3 1.4 1.4 0 01-.2 1.3l-.2.3-.2.2-.1.3-.2.3-.2.3-.2.2-.2.3-.2.3-.2.3-.2.2-.2.3-.2.3-.2.3-.2.2-.2.3-.2.3-.1.2-.2.3-.2.3-.2.3-.2.2-.2.3-.2.3-.2.3-.2.2-.2.3-.2.3-.2.3-.2.2-.2.3-.1.3-.2.3s0 0 0 0h-.1v.1a1.2 1.2 0 01-.2.1s0 0 0 0v.1h-.1-.1c-.1 0 0 .1 0 .1h-.1a1.7 1.7 0 01-.2 0v.1a1.6 1.6 0 01-.5 0s0 0 0 0h-.1a1.6 1.6 0 01-.4 0v-.1h-.2v-.1h-.1l-.2-.2h-.1l-.1-.2h-.2l-.1-.2h-.1l-.2-.1-.1-.1-.1-.1-.2-.1-.1-.1-.1-.1-.2-.1-.1-.1-.1-.1h-.2l-.1-.2h-.1l-.2-.2h-.1l-.1-.2h-.2l-.1-.2h-.1l-.2-.1-.1-.1-.1-.1-.2-.1-.1-.1-.1-.1-.2-.1a1.6 1.6 0 01-.2-.3 1 1 0 01-.2-.1s0 0 0 0v-.2s0 0 0 0l-.1-.1v-.1-.1a2.2 2.2 0 010-.3s0 0 0 0zm-6.5 23.8a3.4 3.4 0 01-1.5 1.1 3.1 3.1 0 01-1.5.2 3 3 0 01-1-.2 3.2 3.2 0 01-.5-.3h0a3.4 3.4 0 01-1.2-1.6 3.1 3.1 0 01-.2-1.5 3 3 0 01.3-1 3.2 3.2 0 01.3-.5l.3-.4.3-.5.3-.4.3-.5.3-.4.3-.4.4-.5.3-.4.3-.5.3-.4.3-.5.3-.4.3-.4.3-.5.3-.4.4-.5a3.4 3.4 0 011.5-1.1 3.1 3.1 0 011.5-.2 3 3 0 011.2.4l.3.1h0a3.4 3.4 0 011.2 1.5 3.1 3.1 0 01.2 1.6 3 3 0 01-.3.9 3.2 3.2 0 01-.3.6l-.3.4-.3.5-.4.4-.3.4-.3.5-.3.4-.3.5-.3.4-.3.5-.3.4-.3.4-.4.5-.3.4-.3.5-.3.4-.3.5zm9.3 6.5a3.4 3.4 0 01-1.5 1.1 3.1 3.1 0 01-1.6.2 3 3 0 01-1.2-.4l-.3-.1h0a3.4 3.4 0 01-1.2-1.5 3.1 3.1 0 01-.1-1.6 3 3 0 01.4-1.2l.1-.3.3-.4.4-.5.3-.4.3-.5.3-.4.3-.4.3-.5.3-.4.3-.5.3-.4.3-.5.4-.4.3-.4.3-.5.3-.4.3-.5a3.4 3.4 0 011.5-1.1 3.1 3.1 0 011.5-.2 3 3 0 011.3.4l.2.1h0a3.4 3.4 0 011.2 1.5 3.1 3.1 0 01.2 1.6 3 3 0 01-.2 1 3.2 3.2 0 01-.4.5l-.3.4-.3.5-.3.4-.3.5-.3.4-.3.4-.3.5-.4.4-.3.5-.3.4-.3.5-.3.4-.3.4-.3.5-.3.4-.3.5zm14.8-18s0 0 0 0h-.2a1.3 1.3 0 01-.3.1 1.3 1.3 0 01-.3 0s0 0 0 0a2.8 2.8 0 01-.2 0h-.1l-.1-.1h-.1v-.1l-.2-.1-.1-.1-.2-.1h-.1l-.1-.2h-.2l-.1-.2h-.1l-.2-.2h-.1l-.1-.1-.2-.1-.1-.1-.1-.1-.2-.1-.1-.1-.1-.1-.2-.1-.1-.1-.1-.1h-.2l-.1-.2h-.1l-.2-.2h-.1l-.1-.2h-.2l-.1-.1-.1-.1-.2-.1-.1-.1-.1-.1s0 0 0 0l-.1-.1h-.1a1.2 1.2 0 01-.1-.2s0 0 0 0 0 0 0 0l-.1-.1s0 0 0 0v-.2a1.2 1.2 0 01-.2-.1v-.1a1.6 1.6 0 010-.5s0 0 0 0v-.1s0 0 0 0v-.1a1.7 1.7 0 01.1-.3s0 0 0 0v-.1l.1-.1.2-.3.2-.2.2-.3.2-.3.2-.3.2-.2.2-.3.2-.3.2-.3.2-.2.1-.3.2-.3.2-.3.2-.2.2-.3.2-.3.2-.3.2-.2.2-.3.2-.3.2-.2.2-.3.2-.3.2-.3.1-.2.2-.3.2-.3.2-.3.2-.2.2-.3.2-.3.2-.3a1.9 1.9 0 01.3-.3 1.4 1.4 0 011.3-.2 2 2 0 01.3.1 1.2 1.2 0 01.2.2 2 2 0 01.2.2 1 1 0 01.1.2 1.8 1.8 0 01.2.4 1.2 1.2 0 010 .2 1.5 1.5 0 010 .3l-.1.3v.4l-.1.4v.3l-.1.4-.1.4v.4l-.1.3v.4l-.1.4-.1.3v.4l-.1.4v.3l-.1.4-.1.4v.3l-.1.4v.4l-.1.3-.1.4v.4l-.1.3v.4l-.1.4-.1.3v.4l-.1.4v.3l-.1.4-.1.4v.4a1 1 0 01-.1.1 1.3 1.3 0 01-.3.6s0 0 0 0a1.2 1.2 0 01-.3.2 1.1 1.1 0 01-.2.1zm-5.6 24.5a3.4 3.4 0 01-1.5 1.1 3.1 3.1 0 01-1.5.2 3 3 0 01-1.2-.4 3.2 3.2 0 01-1.6-3.8 3.5 3.5 0 01.5-.9l.3-.4.3-.5.3-.4.3-.5.3-.4.3-.4.4-.5.3-.4.3-.5.3-.4.3-.5.3-.4.3-.4.3-.5.3-.4.4-.5a3.4 3.4 0 011.5-1.1 3.1 3.1 0 011.5-.2 3 3 0 011.2.4 3.2 3.2 0 011.5 3.8 3.5 3.5 0 01-.4.9l-.3.4-.3.5-.3.4-.4.5-.3.4-.3.4-.3.5-.3.4-.3.5-.3.4-.3.5-.3.4-.4.4-.3.5-.3.4-.3.5zm24-30a16.6 16.6 0 01-6.5-9.5 19 19 0 01-.5-9 21.5 21.5 0 013-8c.2 0 .2-.2.3-.3a21 21 0 013.2-4 22.4 22.4 0 0110.1-5.5 19.4 19.4 0 019.1.1A16.7 16.7 0 01872 415a19.2 19.2 0 010 9.3 22 22 0 01-7.7 12.6 22.2 22.2 0 01-8.6 4.3 19.4 19.4 0 01-9.1-.2 16.7 16.7 0 01-5-2.4z" fill="url(#C)" transform="matrix(.4766 0 0 .4766 -144 50.5)"/></g></svg>