<svg viewBox="0 0 500 500" xmlns="http://www.w3.org/2000/svg"><defs><radialGradient gradientUnits="userSpaceOnUse" cx="274.3" cy="352.4" r="180.6" id="h" gradientTransform="matrix(1.32 0 0 1.32 -1126.2 334.9)"><stop offset="0" stop-color="#0b0056"/><stop offset="1"/></radialGradient><radialGradient gradientUnits="userSpaceOnUse" cx="274.3" cy="352.4" r="0" id="q"><stop offset="0" stop-color="#0b0056"/><stop offset="1"/></radialGradient><radialGradient gradientUnits="userSpaceOnUse" cx="274.3" cy="352.4" r="0" id="r"><stop offset="0" stop-color="#0b0056"/><stop offset="1"/></radialGradient><radialGradient gradientUnits="userSpaceOnUse" cx="274.3" cy="352.4" r="10.8" id="A" gradientTransform="matrix(1.32 0 0 1.32 -1126.2 334.9)"><stop offset="0" stop-color="#0b0056"/><stop offset="1"/></radialGradient><radialGradient gradientUnits="userSpaceOnUse" cx="274.3" cy="190.8" r="0" id="s"><stop offset="0" stop-color="#694633"/><stop offset="1" stop-color="#241812"/></radialGradient><radialGradient gradientUnits="userSpaceOnUse" cx="274.3" cy="229.4" r="10.8" id="u" gradientTransform="matrix(1.32 0 0 1.32 -1126.2 334.9)"><stop offset="0" stop-color="#694633"/><stop offset="1" stop-color="#241812"/></radialGradient><radialGradient gradientUnits="userSpaceOnUse" cx="274.3" cy="270.4" r="10.8" id="v" gradientTransform="matrix(1.32 0 0 1.32 -1126.2 334.9)"><stop offset="0" stop-color="#694633"/><stop offset="1" stop-color="#241812"/></radialGradient><radialGradient gradientUnits="userSpaceOnUse" cx="274.3" cy="311.4" r="10.8" id="w" gradientTransform="matrix(1.32 0 0 1.32 -1126.2 334.9)"><stop offset="0" stop-color="#694633"/><stop offset="1" stop-color="#241812"/></radialGradient><radialGradient gradientUnits="userSpaceOnUse" cx="315.3" cy="352.4" r="0" id="n"><stop offset="0" stop-color="#694633"/><stop offset="1" stop-color="#241812"/></radialGradient><radialGradient gradientUnits="userSpaceOnUse" cx="356.3" cy="352.4" r="0" id="o"><stop offset="0" stop-color="#694633"/><stop offset="1" stop-color="#241812"/></radialGradient><radialGradient gradientUnits="userSpaceOnUse" cx="397.2" cy="352.4" r="0" id="p"><stop offset="0" stop-color="#694633"/><stop offset="1" stop-color="#241812"/></radialGradient><radialGradient gradientUnits="userSpaceOnUse" cx="435.9" cy="352.4" r="16.1" id="j" gradientTransform="matrix(1.32 0 0 1.32 -1126.2 334.9)"><stop offset="0" stop-color="#694633"/><stop offset="1" stop-color="#241812"/></radialGradient><radialGradient gradientUnits="userSpaceOnUse" cx="274.3" cy="393.3" r="10.8" id="x" gradientTransform="matrix(1.32 0 0 1.32 -1126.2 334.9)"><stop offset="0" stop-color="#694633"/><stop offset="1" stop-color="#241812"/></radialGradient><radialGradient gradientUnits="userSpaceOnUse" cx="274.3" cy="434.3" r="10.8" id="y" gradientTransform="matrix(1.32 0 0 1.32 -1126.2 334.9)"><stop offset="0" stop-color="#694633"/><stop offset="1" stop-color="#241812"/></radialGradient><radialGradient gradientUnits="userSpaceOnUse" cx="274.3" cy="475.3" r="10.8" id="z" gradientTransform="matrix(1.32 0 0 1.32 -1126.2 334.9)"><stop offset="0" stop-color="#694633"/><stop offset="1" stop-color="#241812"/></radialGradient><radialGradient gradientUnits="userSpaceOnUse" cx="274.3" cy="513.9" r="0" id="t"><stop offset="0" stop-color="#694633"/><stop offset="1" stop-color="#241812"/></radialGradient><radialGradient gradientUnits="userSpaceOnUse" cx="233.3" cy="352.4" r="0" id="m"><stop offset="0" stop-color="#694633"/><stop offset="1" stop-color="#241812"/></radialGradient><radialGradient gradientUnits="userSpaceOnUse" cx="192.3" cy="352.4" r="0" id="l"><stop offset="0" stop-color="#694633"/><stop offset="1" stop-color="#241812"/></radialGradient><radialGradient gradientUnits="userSpaceOnUse" cx="151.3" cy="352.4" r="0" id="k"><stop offset="0" stop-color="#694633"/><stop offset="1" stop-color="#241812"/></radialGradient><radialGradient gradientUnits="userSpaceOnUse" cx="112.7" cy="352.4" r="16.1" id="i" gradientTransform="matrix(1.32 0 0 1.32 -1126.2 334.9)"><stop offset="0" stop-color="#694633"/><stop offset="1" stop-color="#241812"/></radialGradient><radialGradient gradientUnits="userSpaceOnUse" cx="3" cy="3" r="3" id="e"><stop offset="0" stop-color="#9e623b"/><stop offset="1" stop-color="#54341f"/></radialGradient><radialGradient gradientUnits="userSpaceOnUse" cx="7" cy="7" r="7" id="b"><stop offset="0" stop-color="#9e623b"/><stop offset="1" stop-color="#54341f"/></radialGradient><radialGradient gradientUnits="userSpaceOnUse" cx="7" cy="7" r="7" id="c"><stop offset="0" stop-color="#9e623b"/><stop offset="1" stop-color="#54341f"/></radialGradient><radialGradient gradientUnits="userSpaceOnUse" cx="3" cy="3" r="3" id="f"><stop offset="0" stop-color="#9e623b"/><stop offset="1" stop-color="#54341f"/></radialGradient><radialGradient gradientUnits="userSpaceOnUse" cx="3" cy="3" r="3" id="g"><stop offset="0" stop-color="#9e623b"/><stop offset="1" stop-color="#54341f"/></radialGradient><radialGradient gradientUnits="userSpaceOnUse" cx="7" cy="7" r="7" id="d"><stop offset="0" stop-color="#9e623b"/><stop offset="1" stop-color="#54341f"/></radialGradient><radialGradient gradientUnits="userSpaceOnUse" cx="-764.2" cy="800" r="238.4" id="a"><stop offset="0" stop-color="#694633"/><stop offset="1" stop-color="#241812"/></radialGradient><radialGradient gradientUnits="userSpaceOnUse" cx="824.8" cy="356.7" r="38" id="B"><stop offset="0" stop-color="#7c0101"/><stop offset="1" stop-color="#170000"/></radialGradient><radialGradient gradientUnits="userSpaceOnUse" cx="828.3" cy="442" r="94.1" id="C"><stop offset="0" stop-color="#7c0101"/><stop offset="1" stop-color="#170000"/></radialGradient></defs><g style="" transform="matrix(1.626433, 0, 0, 1.626433, -160.286789, -159.274521)"><g><path fill="#EBCD99" stroke="#000" d="M350.3 109.9l-3 2.5-3 2.5-2.9 2.4-2.9 2.5-3-2.7-2.9-2.6-3-2.7-2.9-2.7-15.5-1.2-15.6-1.3-15.5-1.2-15.6-1.2-3.2 8-3.3 7.9-3.2 8-3.2 8-4.7-8.3-4.8-8.2-4.7-8.3-4.8-8.2-29.2-1-29.2-1-29.1-.9-29.2-1v305.3l7.6-.3 7.7-.3 7.6-.3 7.7-.2 3-9.5 3-9.5 3-9.5 3-9.4 3.5 9.2 3.5 9.2 3.6 9.3 3.5 9.2 28.8-1.4 28.8-1.4 28.8-1.4 28.8-1.4 2.5-3.9 2.5-3.8 2.5-3.8 2.5-3.8 2.6 3.6 2.7 3.6 2.6 3.7 2.6 3.6 20.8-1.5 20.8-1.4 20.8-1.5 20.8-1.5V112l-10.3-.5-10.3-.5-10.3-.5z" stroke-width=".38378"/><path d="M379.8 133.3a310.5 310.5 0 01-17 27 223 223 0 01-41 43.6 219.4 219.4 0 01-67 37.5c-15.4 5.2-31.4 8.6-47.3 10s-32 .6-47.5-2.5-30.3-8.5-44.1-16.6v172.2l7.6-.3 7.7-.3 7.6-.3 7.7-.2 3-9.5 3-9.5 3-9.5 3-9.4 3.5 9.2 3.5 9.2 3.6 9.3 3.5 9.2 28.8-1.4 28.8-1.4 28.8-1.4 28.8-1.4 2.5-3.9 2.5-3.8 2.5-3.8 2.5-3.8 2.6 3.6 2.7 3.6 2.6 3.7 2.6 3.6 20.8-1.5 20.8-1.4 20.8-1.5 20.8-1.5V112H389l-.8-.1a126.7 126.7 0 01-5.7 16.3 67 67 0 01-2.7 5.2z" fill="#C99F67" stroke="#000" stroke-width=".38378"/><path d="M298.7 220.5a248.6 248.6 0 0033.7-25.9 217.4 217.4 0 0020.7-21.9 223 223 0 0018.5-25.6 309.8 309.8 0 0010.9-19 77.9 77.9 0 005.7-16.3l-9.5-.5-9.5-.5-9.5-.5-9.4-.4-3 2.5-3 2.5-2.9 2.4-2.9 2.5-3-2.7-2.9-2.6-3-2.7-2.9-2.7-15.5-1.2-15.6-1.3-15.5-1.2-15.6-1.2-3.2 8-3.3 7.9-3.2 8-3.2 8-4.7-8.3-4.8-8.2-4.7-8.3-4.8-8.2-29.2-1-29.2-1-29.1-.9-29.2-1v133.1c13.8 8 28.7 13.5 44.1 16.6s31.5 3.8 47.5 2.5 31.9-4.8 47.3-10a211.3 211.3 0 0043.9-20.9z" fill="#EBCD99" stroke="#000" stroke-width=".38378"/></g></g><g fill="#333" style="" transform="matrix(1.626433, 0, 0, 1.626433, -160.286789, -159.274521)"><circle cx="3" cy="3" r="3" stroke="#000" stroke-width=".2" fill="#9e633b" transform="matrix(1.79845 0 0 1.79845 232.8 139)"/><circle cx="3" cy="3" r="3" stroke="#000" stroke-width=".2" fill="#9e633b" transform="matrix(1.79845 0 0 1.79845 253.7 139)"/><circle cx="3" cy="3" r="3" stroke="#000" stroke-width=".2" fill="#9e633b" transform="matrix(1.79845 0 0 1.79845 232.8 149.5)"/><circle cx="3" cy="3" r="3" stroke="#000" stroke-width=".2" fill="#9e633b" transform="matrix(1.79845 0 0 1.79845 243.2 149.5)"/><circle cx="3" cy="3" r="3" stroke="#000" stroke-width=".2" fill="#9e633b" transform="matrix(1.79845 0 0 1.79845 253.7 149.5)"/><circle cx="3" cy="3" r="3" stroke="#000" stroke-width=".2" fill="#9e633b" transform="matrix(1.79845 0 0 1.79845 264.2 149.5)"/><circle cx="3" cy="3" r="3" stroke="#000" stroke-width=".2" fill="#9e633b" transform="matrix(1.79845 0 0 1.79845 232.8 160)"/><circle cx="3" cy="3" r="3" stroke="#000" stroke-width=".2" fill="#9e633b" transform="matrix(1.79845 0 0 1.79845 243.2 160)"/><circle cx="3" cy="3" r="3" stroke="#000" stroke-width=".2" fill="#9e633b" transform="matrix(1.79845 0 0 1.79845 264.2 160)"/><circle cx="3" cy="3" r="3" stroke="#000" stroke-width=".2" fill="#9e633b" transform="matrix(1.79845 0 0 1.79845 274.7 170.5)"/><circle cx="3" cy="3" r="3" stroke="#000" stroke-width=".2" fill="#9e633b" transform="matrix(1.79845 0 0 1.79845 243.2 181)"/><circle cx="3" cy="3" r="3" stroke="#000" stroke-width=".2" fill="#9e633b" transform="matrix(1.79845 0 0 1.79845 253.7 181)"/><circle cx="3" cy="3" r="3" stroke="#000" stroke-width=".2" fill="#9e633b" transform="matrix(1.79845 0 0 1.79845 232.8 191.4)"/><circle cx="3" cy="3" r="3" stroke="#000" stroke-width=".2" fill="#9e633b" transform="matrix(1.79845 0 0 1.79845 243.2 191.4)"/><circle cx="3" cy="3" r="3" stroke="#000" stroke-width=".2" fill="#9e633b" transform="matrix(1.79845 0 0 1.79845 253.7 191.4)"/><circle cx="3" cy="3" r="3" stroke="#000" stroke-width=".2" fill="#9e633b" transform="matrix(1.79845 0 0 1.79845 274.7 191.4)"/><circle cx="3" cy="3" r="3" stroke="#000" stroke-width=".2" fill="#9e633b" transform="matrix(1.79845 0 0 1.79845 232.8 201.9)"/><circle cx="3" cy="3" r="3" stroke="#000" stroke-width=".2" fill="#9e633b" transform="matrix(1.79845 0 0 1.79845 253.7 201.9)"/><circle cx="3" cy="3" r="3" stroke="#000" stroke-width=".2" fill="#9e633b" transform="matrix(1.79845 0 0 1.79845 274.7 201.9)"/><circle cx="3" cy="3" r="3" stroke="#000" stroke-width=".2" fill="#9e633b" transform="matrix(1.79845 0 0 1.79845 232.8 212.4)"/><circle cx="3" cy="3" r="3" stroke="#000" stroke-width=".2" fill="#9e633b" transform="matrix(1.79845 0 0 1.79845 264.2 212.4)"/><circle cx="3" cy="3" r="3" stroke="#000" stroke-width=".2" fill="#9e633b" transform="matrix(1.79845 0 0 1.79845 274.7 212.4)"/><circle cx="3" cy="3" r="3" stroke="#000" stroke-width=".2" fill="#9e633b" transform="matrix(1.79845 0 0 1.79845 169.9 222.9)"/><circle cx="3" cy="3" r="3" stroke="#000" stroke-width=".2" fill="#9e633b" transform="matrix(1.79845 0 0 1.79845 180.4 222.9)"/><circle cx="3" cy="3" r="3" stroke="#000" stroke-width=".2" fill="#9e633b" transform="matrix(1.79845 0 0 1.79845 190.8 222.9)"/><circle cx="3" cy="3" r="3" stroke="#000" stroke-width=".2" fill="#9e633b" transform="matrix(1.79845 0 0 1.79845 211.8 222.9)"/><circle cx="3" cy="3" r="3" stroke="#000" stroke-width=".2" fill="#9e633b" transform="matrix(1.79845 0 0 1.79845 285.1 222.9)"/><circle cx="3" cy="3" r="3" stroke="#000" stroke-width=".2" fill="#9e633b" transform="matrix(1.79845 0 0 1.79845 295.6 222.9)"/><circle cx="3" cy="3" r="3" stroke="#000" stroke-width=".2" fill="#9e633b" transform="matrix(1.79845 0 0 1.79845 306 222.9)"/><circle cx="3" cy="3" r="3" stroke="#000" stroke-width=".2" fill="#9e633b" transform="matrix(1.79845 0 0 1.79845 337.5 222.9)"/><circle cx="3" cy="3" r="3" stroke="#000" stroke-width=".2" fill="#9e633b" transform="matrix(1.79845 0 0 1.79845 348 222.9)"/><circle cx="3" cy="3" r="3" stroke="#000" stroke-width=".2" fill="#9e633b" transform="matrix(1.79845 0 0 1.79845 149 233.3)"/><circle cx="3" cy="3" r="3" stroke="#000" stroke-width=".2" fill="#9e633b" transform="matrix(1.79845 0 0 1.79845 190.8 233.3)"/><circle cx="3" cy="3" r="3" stroke="#000" stroke-width=".2" fill="#9e633b" transform="matrix(1.79845 0 0 1.79845 222.3 233.3)"/><circle cx="3" cy="3" r="3" stroke="#000" stroke-width=".2" fill="#9e633b" transform="matrix(1.79845 0 0 1.79845 306 233.3)"/><circle cx="3" cy="3" r="3" stroke="#000" stroke-width=".2" fill="#9e633b" transform="matrix(1.79845 0 0 1.79845 327 233.3)"/><circle cx="3" cy="3" r="3" stroke="#000" stroke-width=".2" fill="#9e633b" transform="matrix(1.79845 0 0 1.79845 337.5 233.3)"/><circle cx="3" cy="3" r="3" stroke="#000" stroke-width=".2" fill="#9e633b" transform="matrix(1.79845 0 0 1.79845 149 243.8)"/><circle cx="3" cy="3" r="3" stroke="#000" stroke-width=".2" fill="#9e633b" transform="matrix(1.79845 0 0 1.79845 159.4 243.8)"/><circle cx="3" cy="3" r="3" stroke="#000" stroke-width=".2" fill="#9e633b" transform="matrix(1.79845 0 0 1.79845 180.4 243.8)"/><circle cx="3" cy="3" r="3" stroke="#000" stroke-width=".2" fill="#9e633b" transform="matrix(1.79845 0 0 1.79845 190.8 243.8)"/><circle cx="3" cy="3" r="3" stroke="#000" stroke-width=".2" fill="#9e633b" transform="matrix(1.79845 0 0 1.79845 211.8 243.8)"/><circle cx="3" cy="3" r="3" stroke="#000" stroke-width=".2" fill="#9e633b" transform="matrix(1.79845 0 0 1.79845 222.3 243.8)"/><circle cx="3" cy="3" r="3" stroke="#000" stroke-width=".2" fill="#9e633b" transform="matrix(1.79845 0 0 1.79845 295.6 243.8)"/><circle cx="3" cy="3" r="3" stroke="#000" stroke-width=".2" fill="#9e633b" transform="matrix(1.79845 0 0 1.79845 316.6 243.8)"/><circle cx="3" cy="3" r="3" stroke="#000" stroke-width=".2" fill="#9e633b" transform="matrix(1.79845 0 0 1.79845 327 243.8)"/><circle cx="3" cy="3" r="3" stroke="#000" stroke-width=".2" fill="#9e633b" transform="matrix(1.79845 0 0 1.79845 337.5 243.8)"/><circle cx="3" cy="3" r="3" stroke="#000" stroke-width=".2" fill="#9e633b" transform="matrix(1.79845 0 0 1.79845 348 243.8)"/><circle cx="3" cy="3" r="3" stroke="#000" stroke-width=".2" fill="#9e633b" transform="matrix(1.79845 0 0 1.79845 149 254.3)"/><circle cx="3" cy="3" r="3" stroke="#000" stroke-width=".2" fill="#9e633b" transform="matrix(1.79845 0 0 1.79845 180.4 254.3)"/><circle cx="3" cy="3" r="3" stroke="#000" stroke-width=".2" fill="#9e633b" transform="matrix(1.79845 0 0 1.79845 201.3 254.3)"/><circle cx="3" cy="3" r="3" stroke="#000" stroke-width=".2" fill="#9e633b" transform="matrix(1.79845 0 0 1.79845 222.3 254.3)"/><circle cx="3" cy="3" r="3" stroke="#000" stroke-width=".2" fill="#9e633b" transform="matrix(1.79845 0 0 1.79845 295.6 254.3)"/><circle cx="3" cy="3" r="3" stroke="#000" stroke-width=".2" fill="#9e633b" transform="matrix(1.79845 0 0 1.79845 306 254.3)"/><circle cx="3" cy="3" r="3" stroke="#000" stroke-width=".2" fill="#9e633b" transform="matrix(1.79845 0 0 1.79845 316.6 254.3)"/><circle cx="3" cy="3" r="3" stroke="#000" stroke-width=".2" fill="#694633" transform="matrix(1.79845 0 0 1.79845 327 254.3)"/><circle cx="3" cy="3" r="3" stroke="#000" stroke-width=".2" fill="#694633" transform="matrix(1.79845 0 0 1.79845 337.5 254.3)"/><circle cx="3" cy="3" r="3" stroke="#000" stroke-width=".2" fill="#9e633b" transform="matrix(1.79845 0 0 1.79845 211.8 264.8)"/><circle cx="3" cy="3" r="3" stroke="#000" stroke-width=".2" fill="#9e633b" transform="matrix(1.79845 0 0 1.79845 285.1 264.8)"/><circle cx="3" cy="3" r="3" stroke="#000" stroke-width=".2" fill="#9e633b" transform="matrix(1.79845 0 0 1.79845 316.6 264.8)"/><circle cx="3" cy="3" r="3" stroke="#000" stroke-width=".2" fill="#694633" transform="matrix(1.79845 0 0 1.79845 327 264.8)"/><circle cx="3" cy="3" r="3" stroke="#000" stroke-width=".2" fill="#694633" transform="matrix(1.79845 0 0 1.79845 337.5 264.8)"/><circle cx="3" cy="3" r="3" stroke="#000" stroke-width=".2" fill="#9e633b" transform="matrix(1.79845 0 0 1.79845 348 264.8)"/><circle cx="3" cy="3" r="3" stroke="#000" stroke-width=".2" fill="#9e633b" transform="matrix(1.79845 0 0 1.79845 232.8 275.2)"/><circle cx="3" cy="3" r="3" stroke="#000" stroke-width=".2" fill="#9e633b" transform="matrix(1.79845 0 0 1.79845 243.2 275.2)"/><circle cx="3" cy="3" r="3" stroke="#000" stroke-width=".2" fill="#9e633b" transform="matrix(1.79845 0 0 1.79845 253.7 275.2)"/><circle cx="3" cy="3" r="3" stroke="#000" stroke-width=".2" fill="#9e633b" transform="matrix(1.79845 0 0 1.79845 264.2 275.2)"/><circle cx="3" cy="3" r="3" stroke="#000" stroke-width=".2" fill="#694633" transform="matrix(1.79845 0 0 1.79845 274.7 275.2)"/><circle cx="3" cy="3" r="3" stroke="#000" stroke-width=".2" fill="#9e633b" transform="matrix(1.79845 0 0 1.79845 337.5 275.2)"/><circle cx="3" cy="3" r="3" stroke="#000" stroke-width=".2" fill="#9e633b" transform="matrix(1.79845 0 0 1.79845 348 275.2)"/><circle cx="3" cy="3" r="3" stroke="#000" stroke-width=".2" fill="#9e633b" transform="matrix(1.79845 0 0 1.79845 264.2 285.7)"/><circle cx="3" cy="3" r="3" stroke="#000" stroke-width=".2" fill="#694633" transform="matrix(1.79845 0 0 1.79845 274.7 285.7)"/><circle cx="3" cy="3" r="3" stroke="#000" stroke-width=".2" fill="#9e633b" transform="matrix(1.79845 0 0 1.79845 348 285.7)"/><circle cx="3" cy="3" r="3" stroke="#000" stroke-width=".2" fill="#9e633b" transform="matrix(1.79845 0 0 1.79845 243.2 296.2)"/><circle cx="3" cy="3" r="3" stroke="#000" stroke-width=".2" fill="#9e633b" transform="matrix(1.79845 0 0 1.79845 253.7 296.2)"/><circle cx="3" cy="3" r="3" stroke="#000" stroke-width=".2" fill="#694633" transform="matrix(1.79845 0 0 1.79845 337.5 296.2)"/><circle cx="3" cy="3" r="3" stroke="#000" stroke-width=".2" fill="#9e633b" transform="matrix(1.79845 0 0 1.79845 232.8 306.7)"/><circle cx="3" cy="3" r="3" stroke="#000" stroke-width=".2" fill="#694633" transform="matrix(1.79845 0 0 1.79845 274.7 306.7)"/><circle cx="3" cy="3" r="3" stroke="#000" stroke-width=".2" fill="#694633" transform="matrix(1.79845 0 0 1.79845 337.5 306.7)"/><circle cx="3" cy="3" r="3" stroke="#000" stroke-width=".2" fill="#9e633b" transform="matrix(1.79845 0 0 1.79845 348 306.7)"/><circle cx="3" cy="3" r="3" stroke="#000" stroke-width=".2" fill="#9e633b" transform="matrix(1.79845 0 0 1.79845 232.8 317.1)"/><circle cx="3" cy="3" r="3" stroke="#000" stroke-width=".2" fill="#694633" transform="matrix(1.79845 0 0 1.79845 285.1 317.1)"/><circle cx="3" cy="3" r="3" stroke="#000" stroke-width=".2" fill="#9e633b" transform="matrix(1.79845 0 0 1.79845 337.5 317.1)"/><circle cx="3" cy="3" r="3" stroke="#000" stroke-width=".2" fill="#9e633b" transform="matrix(1.79845 0 0 1.79845 232.8 327.6)"/><circle cx="3" cy="3" r="3" stroke="#000" stroke-width=".2" fill="#9e633b" transform="matrix(1.79845 0 0 1.79845 243.2 327.6)"/><circle cx="3" cy="3" r="3" stroke="#000" stroke-width=".2" fill="#9e633b" transform="matrix(1.79845 0 0 1.79845 253.7 327.6)"/><circle cx="3" cy="3" r="3" stroke="#000" stroke-width=".2" fill="#9e633b" transform="matrix(1.79845 0 0 1.79845 264.2 327.6)"/><circle cx="3" cy="3" r="3" stroke="#000" stroke-width=".2" fill="#694633" transform="matrix(1.79845 0 0 1.79845 285.1 327.6)"/><circle cx="3" cy="3" r="3" stroke="#000" stroke-width=".2" fill="#694633" transform="matrix(1.79845 0 0 1.79845 316.6 327.6)"/><circle cx="3" cy="3" r="3" stroke="#000" stroke-width=".2" fill="#9e633b" transform="matrix(1.79845 0 0 1.79845 337.5 327.6)"/><circle cx="3" cy="3" r="3" stroke="#000" stroke-width=".2" fill="#9e633b" transform="matrix(1.79845 0 0 1.79845 243.2 338.1)"/><circle cx="3" cy="3" r="3" stroke="#000" stroke-width=".2" fill="#9e633b" transform="matrix(1.79845 0 0 1.79845 253.7 338.1)"/><circle cx="3" cy="3" r="3" stroke="#000" stroke-width=".2" fill="#9e633b" transform="matrix(1.79845 0 0 1.79845 274.7 338.1)"/><circle cx="3" cy="3" r="3" stroke="#000" stroke-width=".2" fill="#694633" transform="matrix(1.79845 0 0 1.79845 285.1 338.1)"/><circle cx="3" cy="3" r="3" stroke="#000" stroke-width=".2" fill="#694633" transform="matrix(1.79845 0 0 1.79845 295.6 338.1)"/><circle cx="3" cy="3" r="3" stroke="#000" stroke-width=".2" fill="#694633" transform="matrix(1.79845 0 0 1.79845 306 338.1)"/><circle cx="3" cy="3" r="3" stroke="#000" stroke-width=".2" fill="#694633" transform="matrix(1.79845 0 0 1.79845 316.6 338.1)"/><circle cx="3" cy="3" r="3" stroke="#000" stroke-width=".2" fill="#9e633b" transform="matrix(1.79845 0 0 1.79845 337.5 338.1)"/><circle cx="3" cy="3" r="3" stroke="#000" stroke-width=".2" fill="#9e633b" transform="matrix(1.79845 0 0 1.79845 274.7 348.6)"/><circle cx="3" cy="3" r="3" stroke="#000" stroke-width=".2" fill="#9e633b" transform="matrix(1.79845 0 0 1.79845 285.1 348.6)"/><circle cx="3" cy="3" r="3" stroke="#000" stroke-width=".2" fill="#9e633b" transform="matrix(1.79845 0 0 1.79845 295.6 348.6)"/><circle cx="3" cy="3" r="3" stroke="#000" stroke-width=".2" fill="#9e633b" transform="matrix(1.79845 0 0 1.79845 316.6 348.6)"/><circle cx="3" cy="3" r="3" stroke="#000" stroke-width=".2" fill="#9e633b" transform="matrix(1.79845 0 0 1.79845 337.5 348.6)"/><circle cx="3" cy="3" r="3" stroke="#000" stroke-width=".2" fill="#9e633b" transform="matrix(1.79845 0 0 1.79845 348 348.6)"/><path d="M4.5 14h5.1C12 14 14 12 14 9.6V4.5C14 2 12 0 9.5 0H4.4C2 0 0 2 0 4.4v5.1C0 12 2 14 4.5 14zM12 4.8v4.4c0 1.5-1.3 2.8-2.8 2.8H4.8A2.7 2.7 0 012 9.2V4.8C2 3.3 3.3 2 4.8 2h4.4C10.8 2 12 3.2 12 4.8z" stroke="#000" stroke-width=".1" fill="url(#b)" transform="matrix(5.23822 0 0 5.23822 149 139)"/><path d="M4.5 14h5.1C12 14 14 12 14 9.6V4.5C14 2 12 0 9.5 0H4.4C2 0 0 2 0 4.4v5.1C0 12 2 14 4.5 14zM12 4.8v4.4c0 1.5-1.3 2.8-2.8 2.8H4.8A2.7 2.7 0 012 9.2V4.8C2 3.3 3.3 2 4.8 2h4.4C10.8 2 12 3.2 12 4.8z" stroke="#000" stroke-width=".1" fill="url(#c)" transform="matrix(5.23822 0 0 5.23822 295.6 139)"/><path d="M4.5 14h5.1C12 14 14 12 14 9.6V4.5C14 2 12 0 9.5 0H4.4C2 0 0 2 0 4.4v5.1C0 12 2 14 4.5 14zM12 4.8v4.4c0 1.5-1.3 2.8-2.8 2.8H4.8A2.7 2.7 0 012 9.2V4.8C2 3.3 3.3 2 4.8 2h4.4C10.8 2 12 3.2 12 4.8z" stroke="#000" stroke-width=".1" fill="url(#d)" transform="matrix(5.23822 0 0 5.23822 149 285.7)"/><path d="M6 1.7v2.7C6 5.2 5.2 6 4.3 6H1.7C.7 6 0 5.3 0 4.3V1.7C0 .8.8 0 1.7 0h2.7C5.3 0 6 .7 6 1.7z" stroke="#000" stroke-width=".1" fill="url(#e)" transform="matrix(5.23822 0 0 5.23822 169.9 160)"/><path d="M6 1.7v2.7C6 5.2 5.2 6 4.3 6H1.7C.7 6 0 5.3 0 4.3V1.7C0 .8.8 0 1.7 0h2.7C5.3 0 6 .7 6 1.7z" stroke="#000" stroke-width=".1" fill="url(#f)" transform="matrix(5.23822 0 0 5.23822 316.6 160)"/><path d="M6 1.7v2.7C6 5.2 5.2 6 4.3 6H1.7C.7 6 0 5.3 0 4.3V1.7C0 .8.8 0 1.7 0h2.7C5.3 0 6 .7 6 1.7z" stroke="#000" stroke-width=".1" fill="url(#g)" transform="matrix(5.23822 0 0 5.23822 169.9 306.7)"/><circle cx="3" cy="3" r="3" stroke="#000" stroke-width=".2" fill="#9e633b" transform="matrix(1.79845 0 0 1.79845 159.2 233.4)"/><circle cx="3" cy="3" r="3" stroke="#000" stroke-width=".2" fill="#9e633b" transform="matrix(1.79845 0 0 1.79845 169.6 233.4)"/><circle cx="3" cy="3" r="3" stroke="#000" stroke-width=".2" fill="#9e633b" transform="matrix(1.79845 0 0 1.79845 159.4 254.3)"/><circle cx="3" cy="3" r="3" stroke="#000" stroke-width=".2" fill="#9e633b" transform="matrix(1.79845 0 0 1.79845 159.4 264.8)"/><circle cx="3" cy="3" r="3" stroke="#000" stroke-width=".2" fill="#9e633b" transform="matrix(1.79845 0 0 1.79845 169.8 264.8)"/><circle cx="3" cy="3" r="3" stroke="#000" stroke-width=".2" fill="#9e633b" transform="matrix(1.79845 0 0 1.79845 180.3 264.8)"/></g><path d="M 383.268 346.871 L 382.129 345.733 L 380.99 344.593 L 379.852 343.619 L 378.877 342.481 L 377.737 341.343 L 376.599 340.204 L 375.46 339.065 L 374.322 337.927 L 374.973 337.275 L 375.46 336.788 L 376.111 336.137 L 376.599 335.649 L 377.25 334.999 L 377.737 334.511 L 378.388 333.86 L 379.038 333.21 C 379.246 332.969 379.412 332.694 379.527 332.396 C 379.891 331.509 379.699 330.49 379.038 329.794 L 379.038 329.794 L 378.877 329.632 L 378.877 329.632 L 378.713 329.469 L 378.713 329.469 L 378.55 329.469 L 378.55 329.306 L 378.388 329.306 L 378.388 329.143 L 378.388 329.143 L 378.226 328.98 L 378.226 328.98 L 378.064 328.819 L 378.064 328.819 L 377.899 328.819 L 377.899 328.656 C 377.629 328.367 377.295 328.145 376.924 328.005 C 376.005 327.683 374.981 327.939 374.322 328.656 L 373.509 329.306 L 372.858 329.956 L 372.208 330.77 L 371.394 331.421 L 370.743 332.234 L 370.094 332.885 L 369.281 333.535 L 368.63 334.349 C 368.63 334.349 368.63 334.349 368.63 334.349 C 368.63 334.349 368.63 334.349 368.63 334.349 C 368.63 334.349 368.63 334.349 368.63 334.349 C 368.63 334.349 368.63 334.349 368.63 334.349 C 368.63 334.349 368.63 334.349 368.63 334.349 C 368.63 334.349 368.63 334.349 368.63 334.349 C 368.63 334.349 368.63 334.349 368.63 334.349 C 368.63 334.349 368.63 334.349 368.63 334.349 C 368.63 334.349 368.63 334.349 368.63 334.349 C 368.63 334.349 368.63 334.349 368.63 334.349 C 368.63 334.349 368.63 334.349 368.63 334.349 L 368.63 334.186 C 368.63 334.186 368.63 334.186 368.63 334.186 C 368.63 334.186 368.63 334.186 368.63 334.186 C 368.63 334.186 368.63 334.186 368.63 334.186 C 368.63 334.186 368.63 334.186 368.63 334.186 L 367.655 333.047 L 366.515 332.071 L 365.539 331.096 L 364.564 329.956 L 363.424 328.98 L 362.449 328.005 L 361.474 327.03 L 360.335 325.89 L 360.009 326.217 L 359.685 326.379 L 359.197 326.704 L 358.871 326.866 L 359.847 325.89 L 360.822 324.915 L 361.798 323.939 L 362.775 322.963 L 365.377 320.36 L 367.979 317.759 L 370.581 315.157 L 373.346 312.391 L 373.02 312.066 L 372.858 311.742 L 372.533 311.253 L 372.371 310.928 L 372.208 310.603 L 371.882 310.115 L 371.72 309.789 L 371.394 309.464 L 371.882 309.627 L 372.208 309.789 L 372.696 309.951 L 373.02 310.276 L 373.509 310.276 L 373.834 310.603 L 374.322 310.764 L 374.647 311.091 L 375.624 310.115 L 376.436 309.302 L 377.25 308.489 L 378.064 307.675 L 379.038 306.699 L 379.852 305.886 L 380.666 305.072 L 381.478 304.258 C 381.478 304.258 381.478 304.258 381.478 304.258 C 381.478 304.258 381.478 304.258 381.478 304.258 C 381.478 304.258 381.478 304.258 381.478 304.258 C 381.478 304.258 381.478 304.258 381.478 304.258 C 381.478 304.258 381.478 304.258 381.478 304.258 C 381.478 304.258 381.478 304.258 381.478 304.258 C 381.478 304.258 381.478 304.258 381.478 304.258 C 381.478 304.258 381.478 304.258 381.478 304.258 L 381.967 302.633 L 382.292 301.007 L 382.616 299.705 L 382.942 298.08 L 383.268 296.616 L 383.592 294.989 L 383.919 293.687 L 384.407 292.061 C 384.407 292.061 384.407 292.061 384.407 292.061 C 384.407 292.061 384.407 292.061 384.407 292.061 C 384.407 292.061 384.407 292.061 384.407 292.061 C 384.407 292.061 384.407 292.061 384.407 292.061 C 384.407 292.061 384.407 292.061 384.407 292.061 C 384.407 292.061 384.407 292.061 384.407 292.061 L 384.243 292.061 C 384.243 292.061 384.243 292.061 384.243 292.061 L 384.243 292.061 L 384.081 292.061 L 384.081 292.061 L 382.453 292.386 L 380.99 292.711 L 379.527 293.037 L 378.064 293.362 L 376.599 293.687 L 374.973 294.014 L 373.672 294.338 L 372.044 294.662 C 372.044 294.662 372.044 294.662 372.044 294.662 C 372.044 294.662 372.044 294.662 372.044 294.662 C 372.044 294.662 372.044 294.662 372.044 294.662 C 372.044 294.662 372.044 294.662 372.044 294.662 C 372.044 294.662 372.044 294.662 372.044 294.662 C 372.044 294.662 372.044 294.662 372.044 294.662 C 372.044 294.662 372.044 294.662 372.044 294.662 C 372.044 294.662 372.044 294.662 372.044 294.662 L 370.418 296.29 L 368.955 297.916 L 367.327 299.542 L 365.702 301.17 L 364.238 302.633 L 362.611 304.258 L 360.985 305.886 L 359.522 307.349 L 359.522 307.512 L 359.847 307.837 L 359.847 308 L 360.172 308.325 L 360.172 308.489 L 360.498 308.813 L 360.498 308.975 L 360.822 309.302 L 357.407 309.302 L 356.757 310.115 L 355.943 310.928 L 355.13 311.742 L 354.48 312.391 L 353.666 313.205 L 352.853 314.019 L 352.04 314.83 L 351.389 315.481 L 351.553 315.969 L 351.877 316.621 L 352.203 317.108 L 352.528 317.597 L 352.528 317.759 L 352.69 318.084 L 352.853 318.247 L 352.853 318.571 L 351.714 317.27 L 350.576 315.969 L 349.275 314.83 L 347.974 313.53 L 345.372 310.928 L 342.77 308.325 L 340.166 305.56 L 337.402 302.958 L 337.077 303.283 L 336.752 303.446 L 336.426 303.61 L 335.939 303.934 L 335.613 304.097 L 335.287 304.421 L 334.8 304.586 L 334.475 304.91 L 334.638 304.421 L 334.8 304.097 L 335.124 303.61 L 335.124 303.283 L 335.45 302.795 L 335.613 302.47 L 335.939 301.982 L 335.939 301.657 L 335.287 300.681 L 334.312 299.868 L 333.498 299.055 L 332.685 298.241 L 331.872 297.265 L 330.897 296.453 L 330.083 295.639 L 329.27 294.825 C 329.27 294.825 329.27 294.825 329.27 294.825 C 329.27 294.825 329.27 294.825 329.27 294.825 C 329.27 294.825 329.27 294.825 329.27 294.825 C 329.27 294.825 329.27 294.825 329.27 294.825 C 329.27 294.825 329.27 294.825 329.27 294.825 C 329.27 294.825 329.27 294.825 329.27 294.825 C 329.27 294.825 329.27 294.825 329.27 294.825 C 329.27 294.825 329.27 294.825 329.27 294.825 L 327.644 294.338 L 326.18 294.014 L 324.553 293.687 L 323.089 293.362 L 321.626 293.037 L 319.998 292.711 L 318.698 292.223 L 317.072 291.899 C 317.072 291.899 317.072 291.899 317.072 291.899 C 317.072 291.899 317.072 291.899 317.072 291.899 C 317.072 291.899 317.072 291.899 317.072 291.899 C 317.072 291.899 317.072 291.899 317.072 291.899 C 317.072 291.899 317.072 291.899 317.072 291.899 C 317.072 291.899 317.072 291.899 317.072 291.899 L 317.072 292.061 C 317.072 292.061 317.072 292.061 317.072 292.061 L 317.072 292.061 L 317.072 292.223 L 317.072 292.223 L 317.396 293.849 L 317.721 295.151 L 318.048 296.778 L 318.372 298.241 L 318.698 299.705 L 319.023 301.17 L 319.35 302.795 L 319.837 304.097 C 319.837 304.097 319.837 304.097 319.837 304.097 C 319.837 304.097 319.837 304.097 319.837 304.097 C 319.837 304.097 319.837 304.097 319.837 304.097 C 319.837 304.097 319.837 304.097 319.837 304.097 C 319.837 304.097 319.837 304.097 319.837 304.097 C 319.837 304.097 319.837 304.097 319.837 304.097 C 319.837 304.097 319.837 304.097 319.837 304.097 C 319.837 304.097 319.837 304.097 319.837 304.097 L 321.463 305.723 L 323.089 307.349 L 324.553 308.975 L 326.18 310.603 L 327.806 312.066 L 329.27 313.693 L 330.897 315.319 L 332.522 316.783 L 332.522 316.621 L 332.848 316.621 L 333.174 316.295 L 333.337 316.295 L 333.661 315.969 L 333.824 315.969 L 333.987 315.645 L 334.312 315.645 L 334.312 318.898 L 335.124 319.547 L 335.939 320.36 L 336.752 321.174 L 337.564 321.825 L 338.215 322.638 L 339.029 323.451 L 339.842 324.264 L 340.493 324.915 L 341.143 324.589 L 341.63 324.426 L 342.118 324.102 L 342.607 323.777 L 342.932 323.777 L 343.094 323.614 L 343.257 323.451 L 343.582 323.288 L 342.932 323.939 L 342.281 324.589 L 341.794 325.077 L 341.143 325.728 L 339.029 327.843 L 336.914 329.956 L 334.8 332.071 L 332.685 334.186 C 332.685 334.186 332.685 334.186 332.685 334.186 C 332.685 334.186 332.685 334.186 332.685 334.186 C 332.685 334.186 332.685 334.186 332.685 334.186 C 332.685 334.186 332.685 334.186 332.685 334.186 C 332.685 334.186 332.685 334.186 332.685 334.186 C 332.685 334.186 332.685 334.186 332.685 334.186 C 332.685 334.186 332.685 334.186 332.685 334.186 C 332.685 334.186 332.685 334.186 332.685 334.186 L 332.035 333.535 L 331.385 332.885 L 330.57 332.234 L 329.921 331.421 L 329.107 330.77 L 328.457 329.956 L 327.806 329.306 L 326.992 328.656 L 326.668 328.331 C 326.01 327.849 325.156 327.727 324.391 328.005 C 324.08 328.168 323.805 328.389 323.577 328.656 L 323.577 328.656 L 323.414 328.656 L 323.414 328.819 L 323.252 328.819 L 323.252 328.819 L 323.089 328.98 L 323.089 328.98 L 323.089 329.143 L 322.927 329.143 L 322.927 329.306 L 322.765 329.306 L 322.765 329.469 L 322.602 329.469 L 322.602 329.469 L 322.438 329.632 L 322.438 329.632 C 321.397 330.597 321.397 332.244 322.438 333.21 L 322.927 333.86 L 323.577 334.511 L 324.065 334.999 L 324.715 335.649 L 325.204 336.137 L 325.855 336.788 L 326.504 337.275 L 326.992 337.927 L 325.855 339.065 L 324.715 340.204 L 323.577 341.343 L 322.602 342.481 L 321.463 343.619 L 320.326 344.593 L 319.186 345.733 L 318.048 346.871 C 317.308 347.533 316.893 348.483 316.909 349.475 C 316.93 350.174 317.156 350.852 317.559 351.426 L 318.048 351.915 L 318.048 351.915 L 318.21 352.077 L 318.21 352.239 L 318.372 352.239 L 318.372 352.401 L 318.698 352.401 L 318.698 352.727 L 319.511 353.377 L 320.163 354.191 L 320.975 354.841 L 321.626 355.492 L 322.276 356.143 L 322.927 356.956 L 323.741 357.606 L 324.391 358.257 C 324.71 358.604 325.097 358.881 325.529 359.071 C 325.95 359.2 326.39 359.255 326.831 359.233 C 327.515 359.261 328.191 359.09 328.782 358.744 L 329.433 358.257 L 330.57 357.119 L 331.709 355.98 L 332.685 354.841 L 333.824 353.702 L 334.963 352.727 L 336.1 351.588 L 337.24 350.45 L 338.378 349.311 L 339.029 349.799 L 339.517 350.45 L 340.166 351.101 L 340.655 351.588 L 341.305 352.239 L 341.794 352.727 L 342.444 353.377 L 343.094 353.865 C 343.623 354.467 344.413 354.772 345.209 354.678 C 345.569 354.598 345.904 354.431 346.185 354.191 L 346.51 353.865 L 346.673 353.865 L 346.835 353.702 L 346.835 353.702 L 346.835 353.541 L 346.998 353.541 L 346.998 353.377 L 347.16 353.377 L 347.16 353.215 L 347.323 353.215 L 347.487 353.053 L 347.487 353.053 L 347.487 352.889 L 347.649 352.889 C 347.942 352.623 348.165 352.287 348.299 351.915 C 348.62 350.993 348.366 349.971 347.649 349.311 L 346.998 348.498 L 346.348 347.848 L 345.534 347.197 L 344.883 346.384 L 344.071 345.733 L 343.419 344.921 L 342.77 344.269 L 341.957 343.619 C 341.957 343.619 341.957 343.619 341.957 343.619 C 341.957 343.619 341.957 343.619 341.957 343.619 C 341.957 343.619 341.957 343.619 341.957 343.619 C 341.957 343.619 341.957 343.619 341.957 343.619 C 341.957 343.619 341.957 343.619 341.957 343.619 C 341.957 343.619 341.957 343.619 341.957 343.619 C 341.957 343.619 341.957 343.619 341.957 343.619 C 341.957 343.619 341.957 343.619 341.957 343.619 C 341.957 343.619 341.957 343.619 341.957 343.619 C 341.957 343.619 341.957 343.619 341.957 343.619 C 341.957 343.619 341.957 343.619 341.957 343.619 L 342.118 343.619 C 342.118 343.619 342.118 343.619 342.118 343.619 C 342.118 343.619 342.118 343.619 342.118 343.619 C 342.118 343.619 342.118 343.619 342.118 343.619 C 342.118 343.619 342.118 343.619 342.118 343.619 L 343.257 342.481 L 344.233 341.506 L 345.209 340.528 L 346.348 339.39 L 347.323 338.415 L 348.299 337.439 L 349.275 336.464 L 350.413 335.325 L 350.089 334.999 L 349.926 334.511 L 349.6 334.186 L 349.437 333.698 L 349.764 334.186 L 350.089 334.511 L 350.413 334.836 L 350.738 335.161 L 352.853 337.275 L 354.968 339.39 L 357.083 341.506 L 359.197 343.619 C 359.197 343.619 359.197 343.619 359.197 343.619 C 359.197 343.619 359.197 343.619 359.197 343.619 C 359.197 343.619 359.197 343.619 359.197 343.619 C 359.197 343.619 359.197 343.619 359.197 343.619 C 359.197 343.619 359.197 343.619 359.197 343.619 C 359.197 343.619 359.197 343.619 359.197 343.619 L 358.546 344.269 L 357.894 344.921 L 357.245 345.733 L 356.431 346.384 L 355.781 347.197 L 355.13 347.848 L 354.316 348.498 L 353.666 349.311 C 353.321 349.67 353.095 350.123 353.015 350.613 C 352.93 351.176 353.047 351.752 353.341 352.239 C 353.341 352.564 353.504 352.727 353.666 352.727 L 353.666 352.727 L 353.666 352.889 L 353.828 352.889 L 353.828 353.053 L 353.992 353.053 L 353.992 353.215 L 354.155 353.215 L 354.155 353.377 L 354.316 353.377 L 354.316 353.541 L 354.48 353.541 L 354.48 353.702 L 354.643 353.702 L 354.643 353.865 L 354.643 353.865 C 354.917 354.149 355.251 354.371 355.619 354.517 C 356.095 354.666 356.606 354.666 357.083 354.517 C 357.573 354.437 358.026 354.21 358.383 353.865 L 358.871 353.377 L 359.522 352.727 L 360.009 352.239 L 360.661 351.588 L 361.149 351.101 L 361.798 350.45 L 362.449 349.799 L 362.937 349.311 L 364.076 350.45 L 365.215 351.588 L 366.353 352.727 L 367.492 353.702 L 368.63 354.841 L 369.769 355.98 L 370.907 357.119 L 371.882 358.257 C 372.898 359.295 374.44 359.617 375.787 359.071 C 376.213 358.873 376.6 358.597 376.924 358.257 L 377.087 358.257 L 377.087 358.094 L 377.25 358.094 L 377.25 357.932 L 377.412 357.769 L 377.575 357.769 L 377.575 357.606 L 377.737 357.606 L 378.388 356.793 L 379.202 356.143 L 379.852 355.33 L 380.503 354.678 L 381.316 354.028 L 381.967 353.377 L 382.616 352.564 L 383.268 351.915 C 383.768 351.431 384.107 350.807 384.243 350.124 C 384.487 348.946 384.119 347.723 383.268 346.871 Z" fill="#694633" stroke="#000" stroke-width=".3" style=""/></svg>