<svg width="42" height="42" viewBox="0 0 612 612" xmlns="http://www.w3.org/2000/svg" xmlns:bx="https://boxy-svg.com">
  <defs></defs>
  <path style="fill: rgb(235, 205, 153); fill-opacity: 0.4;" transform="matrix(0.53424, 0, 0, 0.534425, -93.361092, 94.264542)" d="M 747.531 199.72 A 196.473 196.473 0 1 1 747.531 592.666 L 747.531 396.193 Z" bx:shape="pie 747.531 396.193 0 196.473 0 180 1@f4364690"></path>
  <path fill="#966840" d="M 363.011 343.192 L 347.37 327.54 C 347.37 327.54 356.269 318.385 356.472 317.865 C 357.105 316.308 352.569 310.427 351.921 310.176 C 350.317 309.615 348.528 310.066 347.37 311.321 L 337.422 320.996 L 322.552 306.021 L 345.667 282.86 L 342.252 277.738 L 347.941 280.586 L 359.879 268.626 L 365 247.284 L 343.391 251.838 L 321.495 274.037 L 323.771 277.449 L 317.799 277.449 L 307.278 288.264 L 309.837 293.672 L 305.859 289.119 L 282.825 266.356 L 277.708 269.769 L 280.266 264.075 L 268.61 252.123 L 247.286 247 L 252.115 268.344 L 274.294 290.544 L 277.425 288.55 L 277.425 294.245 L 288.231 304.771 L 293.634 301.928 L 274.58 320.996 L 264.063 310.749 C 262.911 309.906 261.419 309.693 260.08 310.176 C 259.536 310.467 256.664 313.024 256.664 313.024 C 254.85 314.715 254.85 317.599 256.664 319.288 L 264.63 327.54 L 248.991 343.192 C 247.695 344.352 246.969 346.015 247.001 347.752 C 247.035 348.97 247.428 350.156 248.14 351.161 L 260.08 363.117 C 260.639 363.723 261.312 364.209 262.069 364.54 C 262.808 364.766 263.574 364.86 264.344 364.823 C 265.542 364.873 266.724 364.574 267.76 363.968 L 284.534 347.463 L 292.775 355.429 C 293.705 356.487 295.084 357.019 296.479 356.858 C 297.105 356.712 301.642 352.67 301.879 352.016 C 302.439 350.406 301.992 348.619 300.739 347.463 L 291.072 337.504 L 305.82 322.646 L 320.933 337.504 L 311.258 347.463 C 310.656 348.089 310.263 348.885 310.122 349.74 C 309.976 350.723 310.179 351.734 310.694 352.586 C 310.694 353.156 314.033 356.318 314.674 356.572 C 315.509 356.835 316.4 356.835 317.235 356.572 C 318.092 356.431 318.884 356.034 319.504 355.429 L 327.468 347.463 L 343.108 363.117 C 344.883 364.934 347.579 365.496 349.934 364.54 C 350.677 364.193 364.477 350.08 364.717 348.885 C 365.144 346.822 364.5 344.682 363.011 343.192 Z" stroke="#000" stroke-width=".3" style="fill-opacity: 0.4;"></path>
  <path style="fill-opacity: 0.4; fill: rgb(84, 52, 32);" transform="matrix(0.53424, 0, 0, 0.534425, -93.361244, 94.264481)" d="M 747.531 592.666 A 196.473 196.473 0 1 1 747.531 199.72 L 747.531 396.193 Z" bx:shape="pie 747.531 396.193 0 196.473 180 0 1@edc3b800"></path>
</svg>