<svg width="42" height="42" viewBox="0 0 612 612" xmlns="http://www.w3.org/2000/svg">
  <path fill="#54341f" d="M 306 612 C 300.316 612 295.125 608.789 292.582 603.707 L 246.441 511.426 C 157.52 485.211 96 403.359 96 310 C 96 194.207 190.207 100 306 100 C 421.793 100 516 194.207 516 310 C 516 403.363 454.48 485.215 365.555 511.43 L 319.414 603.707 C 316.875 608.789 311.68 612 306 612 Z M 306 612"></path>
  <path fill="#ebcd99" d="M 305.909 100 L 305.909 612 C 311.589 612 316.784 608.789 319.323 603.707 L 365.464 511.43 C 454.39 485.215 515.909 403.363 515.909 310 C 515.909 194.207 421.702 100 305.909 100 Z M 305.909 100"></path>
  <path fill="#966840" d="M 420.3 380.732 L 389.004 349.444 C 389.004 349.444 406.81 331.143 407.217 330.103 C 408.482 326.991 399.407 315.234 398.111 314.732 C 394.9 313.612 391.321 314.513 389.004 317.021 L 369.1 336.362 L 339.347 306.426 L 385.598 260.127 L 378.764 249.888 L 390.147 255.582 L 414.034 231.674 L 424.28 189.011 L 381.044 198.114 L 337.234 242.49 L 341.786 249.311 L 329.837 249.311 L 308.787 270.931 L 313.907 281.741 L 305.947 272.639 L 259.861 227.136 L 249.621 233.959 L 254.74 222.576 L 231.419 198.683 L 188.751 188.443 L 198.415 231.111 L 242.791 275.489 L 249.056 271.502 L 249.056 282.886 L 270.677 303.928 L 281.487 298.245 L 243.362 336.362 L 222.32 315.879 C 220.016 314.194 217.03 313.768 214.35 314.732 C 213.262 315.314 207.517 320.426 207.517 320.426 C 203.886 323.806 203.886 329.571 207.517 332.948 L 223.454 349.444 L 192.162 380.732 C 189.57 383.051 188.118 386.375 188.182 389.847 C 188.25 392.282 189.037 394.653 190.461 396.662 L 214.35 420.562 C 215.47 421.775 216.816 422.746 218.33 423.407 C 219.809 423.859 221.342 424.047 222.881 423.973 C 225.28 424.072 227.645 423.475 229.718 422.263 L 263.279 389.27 L 279.769 405.194 C 281.629 407.309 284.389 408.373 287.18 408.05 C 288.432 407.759 297.51 399.679 297.984 398.372 C 299.104 395.154 298.21 391.581 295.704 389.27 L 276.361 369.361 L 305.87 339.661 L 336.108 369.361 L 316.75 389.27 C 315.545 390.522 314.758 392.113 314.478 393.822 C 314.184 395.787 314.591 397.807 315.621 399.511 C 315.621 400.651 322.303 406.971 323.584 407.479 C 325.255 408.005 327.038 408.005 328.709 407.479 C 330.424 407.197 332.009 406.403 333.248 405.194 L 349.183 389.27 L 380.478 420.562 C 384.028 424.195 389.422 425.318 394.135 423.407 C 395.62 422.713 423.232 394.502 423.712 392.113 C 424.568 387.989 423.278 383.711 420.3 380.732 Z" stroke="#000" stroke-width=".3"></path>
</svg>
