<svg width="42" height="42" viewBox="0 0 612 612" xmlns="http://www.w3.org/2000/svg">
  <path fill="#54341f" d="M 305.973 612.015 C 300.289 612.015 295.098 608.804 292.555 603.722 L 246.414 511.441 C 157.493 485.226 95.973 403.374 95.973 310.015 C 95.973 194.222 190.18 100.015 305.973 100.015 C 421.766 100.015 515.973 194.222 515.973 310.015 C 515.973 403.378 454.453 485.23 365.528 511.445 L 319.387 603.722 C 316.848 608.804 311.653 612.015 305.973 612.015 Z M 305.973 612.015"></path>
  <path fill="#ebcd99" d="M 305.882 100.015 L 305.882 612.015 C 311.562 612.015 316.757 608.804 319.296 603.722 L 365.437 511.445 C 454.363 485.23 515.882 403.378 515.882 310.015 C 515.882 194.222 421.675 100.015 305.882 100.015 Z M 305.882 100.015"></path>
  <path fill="#966840" d="M 420.273 380.747 L 388.977 349.459 C 388.977 349.459 406.783 331.158 407.19 330.118 C 408.455 327.006 399.38 315.249 398.084 314.747 C 394.873 313.627 391.294 314.528 388.977 317.036 L 369.073 336.377 L 339.32 306.441 L 385.571 260.142 L 378.737 249.903 L 390.12 255.597 L 414.007 231.689 L 424.253 189.026 L 381.017 198.129 L 337.207 242.505 L 341.759 249.326 L 329.81 249.326 L 308.76 270.946 L 313.88 281.756 L 305.92 272.654 L 259.834 227.151 L 249.594 233.974 L 254.713 222.591 L 231.392 198.698 L 188.724 188.458 L 198.388 231.126 L 242.764 275.504 L 249.029 271.517 L 249.029 282.901 L 270.65 303.943 L 281.46 298.26 L 243.335 336.377 L 222.293 315.894 C 219.989 314.209 217.003 313.783 214.323 314.747 C 213.235 315.329 207.49 320.441 207.49 320.441 C 203.859 323.821 203.859 329.586 207.49 332.963 L 223.427 349.459 L 192.135 380.747 C 189.543 383.066 188.091 386.39 188.155 389.862 C 188.223 392.297 189.01 394.668 190.434 396.677 L 214.323 420.577 C 215.443 421.79 216.789 422.761 218.303 423.422 C 219.782 423.874 221.315 424.062 222.854 423.988 C 225.253 424.087 227.618 423.49 229.691 422.278 L 263.252 389.285 L 279.742 405.209 C 281.602 407.324 284.362 408.388 287.153 408.065 C 288.405 407.774 297.483 399.694 297.957 398.387 C 299.077 395.169 298.183 391.596 295.677 389.285 L 276.334 369.376 L 305.843 339.676 L 336.081 369.376 L 316.723 389.285 C 315.518 390.537 314.731 392.128 314.451 393.837 C 314.157 395.802 314.564 397.822 315.594 399.526 C 315.594 400.666 322.276 406.986 323.557 407.494 C 325.228 408.02 327.011 408.02 328.682 407.494 C 330.397 407.212 331.982 406.418 333.221 405.209 L 349.156 389.285 L 380.451 420.577 C 384.001 424.21 389.395 425.333 394.108 423.422 C 395.593 422.728 423.205 394.517 423.685 392.128 C 424.541 388.004 423.251 383.726 420.273 380.747 Z" stroke="#000" stroke-width=".3"></path>
  <path fill="#486600" d="M 597.178 139.595 L 465.124 271.649 C 459.522 277.258 451.924 280.405 443.998 280.405 C 436.074 280.405 428.475 277.25 422.874 271.649 L 357.424 206.2 C 345.763 194.53 345.763 175.619 357.432 163.941 C 363.035 158.339 370.626 155.194 378.55 155.194 C 386.474 155.194 394.065 158.339 399.667 163.941 L 438.671 202.954 C 440.087 204.368 442.009 205.167 444.007 205.167 C 446.005 205.167 447.927 204.368 449.343 202.954 L 554.936 97.352 C 560.546 91.75 568.136 88.596 576.069 88.596 C 583.985 88.604 591.584 91.75 597.187 97.352 C 608.847 109.022 608.847 127.932 597.178 139.595 Z" style=""></path>
</svg>
