<svg xmlns="http://www.w3.org/2000/svg" xml:space="preserve" viewBox="0 0 512 512" fill="currentColor">
  <path
    d="M195.4 8.4c-18.1 0-33.9 9.3-45.1 21.3s-19.3 27-26.4 43.2c-11 25-18.8 52.7-25.8 78.7-22.4 6.5-41.4 14.7-56.7 24.5-17.9 11.5-32.9 27.5-32.9 49 0 18.7 11.4 33.7 25.8 44.5 12.3 9.2 27.3 16.8 45.1 23.2 1 4.8 2.6 9.6 4.5 14.2-17.4 9.8-45 28.9-71.6 65.1L0 389.5l17.4 12.3 67.7 46.4-27.7 55.5h397.2l-27.7-55.5 67.7-46.4 17.4-12.3-12.3-17.4c-26.6-36.3-54.2-55.3-71.6-65.1 1.9-4.6 3.5-9.4 4.5-14.2 17.8-6.4 32.9-14 45.1-23.2 14.3-10.8 25.8-25.8 25.8-44.5 0-21.5-15-37.5-32.9-49-15.3-9.8-34.3-18-56.7-24.5-7.7-26.9-16.3-55.1-27.1-80-7-16-14.8-30.8-25.8-42.6S334.3 8.4 316.6 8.4c-12 0-21.1 3.3-31 5.8-9.8 2.5-19.7 4.5-29.7 4.5-19.7 0-36.3-10.3-60.5-10.3m0 41.3C199.7 49.7 225 60 256 60c15.5 0 29.3-3.1 40-5.8s18.9-4.5 20.6-4.5c4.8 0 8.3 1.5 14.2 7.7s12.8 17.4 18.7 31c11.2 25.6 19.7 60.6 29 92.9 0-.1 1.1-1-1.9.6-5.2 2.8-16 6.4-29 8.4-26.2 3.9-61.9 3.9-91.6 3.9-29.5 0-65.3-.4-91.6-4.5-13.1-2-23.8-5.6-29-8.4l-2.6-.6v-1.2l.6-.6c1.5-2.7 2.4-5.9 2.6-9v-.6c7.4-27.4 15.7-56.4 25.8-79.3 6-13.8 12.6-25 18.7-31.6s10.4-8.7 14.9-8.7M94.8 196c4.7 9.7 12.9 17.4 21.3 21.9 12.6 6.7 27 9.8 42.6 12.3 31.1 4.8 67.5 5.2 97.4 5.2 29.7 0 66.2.2 97.4-4.5 15.6-2.3 29.9-5.4 42.6-12.3 8.5-4.6 16.7-12.7 21.3-22.6 12.7 4.5 23.5 9.4 31 14.2 12 7.7 14.2 13.5 14.2 14.8 0 1.2-1 5.2-9.7 11.6-8.6 6.4-23.5 13.9-42.6 20-38.2 12.2-93.2 20-154.1 20s-115.9-7.8-154.1-20c-19.1-6-33.9-13.5-42.6-20s-9.7-10.4-9.7-11.6c0-1.4 1.6-6.5 13.5-14.2 7.4-4.8 18.4-10 31.5-14.8m53.5 112.9c6.8 1.1 13.5 3 20.6 3.9 2.7 18.1 16.8 34.1 39.3 35.5 17.4 1 37-7.2 38.7-30.3h18c1.7 23.1 21.3 31.4 38.7 30.3 22.6-1.4 36.7-17.3 39.3-35.5 7.2-.9 13.9-2.7 20.6-3.9l-1.9 12.9c-6.4 33.9-21.5 65.4-40.6 87.1-19 21.6-41.4 33.1-65 32.8-24.3-.3-46.2-12-65.1-33.5s-33.9-52.3-40.6-86.4zm252.1 29.6c7.7 4.5 27.8 17.7 50.9 43.2l-62.5 43.2-14.8 9.7 7.7 16.1 5.8 11.6h-65.1c10.8-7.3 20.8-16.4 29.7-26.4 22.7-25.8 38-59.6 46.4-96.1zm-289.5.7 2.6 1.3c8.9 36 24 69.4 46.4 94.8 9.3 10.6 20.1 19.6 31.6 27.1h-67.1l5.8-11.6 7.7-16.1-14.8-9.7-62.5-43.2c21.9-24.2 41.8-37.5 50.3-42.6"
  />
</svg>
